solid OpenSCAD_Model
  facet normal 0.882952 -0.469463 0
    outer loop
      vertex 15.8787 76.7855 17.1
      vertex 21.1367 86.6746 16
      vertex 21.1367 86.6746 17.1
    endloop
  endfacet
  facet normal 0.882952 -0.469463 0
    outer loop
      vertex 21.1367 86.6746 16
      vertex 15.8787 76.7855 17.1
      vertex 15.8787 76.7855 16
    endloop
  endfacet
  facet normal 0 0 1
    outer loop
      vertex 20.1213 87.2145 17.1
      vertex 15.8787 76.7855 17.1
      vertex 21.1367 86.6746 17.1
    endloop
  endfacet
  facet normal 0 -0 1
    outer loop
      vertex 15.8787 76.7855 17.1
      vertex 20.1213 87.2145 17.1
      vertex 14.8633 77.3254 17.1
    endloop
  endfacet
  facet normal 0 0 -1
    outer loop
      vertex 15.8787 76.7855 16
      vertex 20.1213 87.2145 16
      vertex 21.1367 86.6746 16
    endloop
  endfacet
  facet normal 0 0 -1
    outer loop
      vertex 20.1213 87.2145 16
      vertex 15.8787 76.7855 16
      vertex 14.8633 77.3254 16
    endloop
  endfacet
  facet normal -0.882952 0.469463 0
    outer loop
      vertex 14.8633 77.3254 16
      vertex 20.1213 87.2145 17.1
      vertex 20.1213 87.2145 16
    endloop
  endfacet
  facet normal -0.882952 0.469463 0
    outer loop
      vertex 20.1213 87.2145 17.1
      vertex 14.8633 77.3254 16
      vertex 14.8633 77.3254 17.1
    endloop
  endfacet
  facet normal 0.469473 0.882947 -0
    outer loop
      vertex 21.1367 86.6746 16
      vertex 20.1213 87.2145 17.1
      vertex 21.1367 86.6746 17.1
    endloop
  endfacet
  facet normal 0.469473 0.882947 0
    outer loop
      vertex 20.1213 87.2145 17.1
      vertex 21.1367 86.6746 16
      vertex 20.1213 87.2145 16
    endloop
  endfacet
  facet normal -0.469473 -0.882947 0
    outer loop
      vertex 14.8633 77.3254 16
      vertex 15.8787 76.7855 17.1
      vertex 14.8633 77.3254 17.1
    endloop
  endfacet
  facet normal -0.469473 -0.882947 -0
    outer loop
      vertex 15.8787 76.7855 17.1
      vertex 14.8633 77.3254 16
      vertex 15.8787 76.7855 16
    endloop
  endfacet
  facet normal 0.882952 -0.469463 0
    outer loop
      vertex 20.8787 76.7855 17.1
      vertex 26.1367 86.6746 16
      vertex 26.1367 86.6746 17.1
    endloop
  endfacet
  facet normal 0.882952 -0.469463 0
    outer loop
      vertex 26.1367 86.6746 16
      vertex 20.8787 76.7855 17.1
      vertex 20.8787 76.7855 16
    endloop
  endfacet
  facet normal 0 0 1
    outer loop
      vertex 25.1213 87.2145 17.1
      vertex 20.8787 76.7855 17.1
      vertex 26.1367 86.6746 17.1
    endloop
  endfacet
  facet normal 0 -0 1
    outer loop
      vertex 20.8787 76.7855 17.1
      vertex 25.1213 87.2145 17.1
      vertex 19.8633 77.3254 17.1
    endloop
  endfacet
  facet normal 0 0 -1
    outer loop
      vertex 20.8787 76.7855 16
      vertex 25.1213 87.2145 16
      vertex 26.1367 86.6746 16
    endloop
  endfacet
  facet normal 0 0 -1
    outer loop
      vertex 25.1213 87.2145 16
      vertex 20.8787 76.7855 16
      vertex 19.8633 77.3254 16
    endloop
  endfacet
  facet normal -0.882952 0.469463 0
    outer loop
      vertex 19.8633 77.3254 16
      vertex 25.1213 87.2145 17.1
      vertex 25.1213 87.2145 16
    endloop
  endfacet
  facet normal -0.882952 0.469463 0
    outer loop
      vertex 25.1213 87.2145 17.1
      vertex 19.8633 77.3254 16
      vertex 19.8633 77.3254 17.1
    endloop
  endfacet
  facet normal 0.469473 0.882947 -0
    outer loop
      vertex 26.1367 86.6746 16
      vertex 25.1213 87.2145 17.1
      vertex 26.1367 86.6746 17.1
    endloop
  endfacet
  facet normal 0.469473 0.882947 0
    outer loop
      vertex 25.1213 87.2145 17.1
      vertex 26.1367 86.6746 16
      vertex 25.1213 87.2145 16
    endloop
  endfacet
  facet normal -0.469473 -0.882947 0
    outer loop
      vertex 19.8633 77.3254 16
      vertex 20.8787 76.7855 17.1
      vertex 19.8633 77.3254 17.1
    endloop
  endfacet
  facet normal -0.469473 -0.882947 -0
    outer loop
      vertex 20.8787 76.7855 17.1
      vertex 19.8633 77.3254 16
      vertex 20.8787 76.7855 16
    endloop
  endfacet
  facet normal 0.882952 -0.469463 0
    outer loop
      vertex 25.8787 76.7855 17.1
      vertex 31.1367 86.6746 16
      vertex 31.1367 86.6746 17.1
    endloop
  endfacet
  facet normal 0.882952 -0.469463 0
    outer loop
      vertex 31.1367 86.6746 16
      vertex 25.8787 76.7855 17.1
      vertex 25.8787 76.7855 16
    endloop
  endfacet
  facet normal 0 0 1
    outer loop
      vertex 30.1213 87.2145 17.1
      vertex 25.8787 76.7855 17.1
      vertex 31.1367 86.6746 17.1
    endloop
  endfacet
  facet normal 0 -0 1
    outer loop
      vertex 25.8787 76.7855 17.1
      vertex 30.1213 87.2145 17.1
      vertex 24.8633 77.3254 17.1
    endloop
  endfacet
  facet normal 0 0 -1
    outer loop
      vertex 25.8787 76.7855 16
      vertex 30.1213 87.2145 16
      vertex 31.1367 86.6746 16
    endloop
  endfacet
  facet normal 0 0 -1
    outer loop
      vertex 30.1213 87.2145 16
      vertex 25.8787 76.7855 16
      vertex 24.8633 77.3254 16
    endloop
  endfacet
  facet normal -0.882952 0.469463 0
    outer loop
      vertex 24.8633 77.3254 16
      vertex 30.1213 87.2145 17.1
      vertex 30.1213 87.2145 16
    endloop
  endfacet
  facet normal -0.882952 0.469463 0
    outer loop
      vertex 30.1213 87.2145 17.1
      vertex 24.8633 77.3254 16
      vertex 24.8633 77.3254 17.1
    endloop
  endfacet
  facet normal 0.469473 0.882947 -0
    outer loop
      vertex 31.1367 86.6746 16
      vertex 30.1213 87.2145 17.1
      vertex 31.1367 86.6746 17.1
    endloop
  endfacet
  facet normal 0.469473 0.882947 0
    outer loop
      vertex 30.1213 87.2145 17.1
      vertex 31.1367 86.6746 16
      vertex 30.1213 87.2145 16
    endloop
  endfacet
  facet normal -0.469473 -0.882947 0
    outer loop
      vertex 24.8633 77.3254 16
      vertex 25.8787 76.7855 17.1
      vertex 24.8633 77.3254 17.1
    endloop
  endfacet
  facet normal -0.469473 -0.882947 -0
    outer loop
      vertex 25.8787 76.7855 17.1
      vertex 24.8633 77.3254 16
      vertex 25.8787 76.7855 16
    endloop
  endfacet
endsolid OpenSCAD_Model
