solid OpenSCAD_Model
  facet normal 0.0654432 -0.997856 0
    outer loop
      vertex 91 96 17.7
      vertex 91.6526 96.0428 20.7
      vertex 91 96 20.7
    endloop
  endfacet
  facet normal 0.0654432 -0.997856 0
    outer loop
      vertex 91.6526 96.0428 20.7
      vertex 91 96 17.7
      vertex 91.6526 96.0428 17.7
    endloop
  endfacet
  facet normal 0.321407 -0.946941 0
    outer loop
      vertex 92.2941 96.1704 17.7
      vertex 92.9134 96.3806 20.7
      vertex 92.2941 96.1704 20.7
    endloop
  endfacet
  facet normal 0.321407 -0.946941 0
    outer loop
      vertex 92.9134 96.3806 20.7
      vertex 92.2941 96.1704 17.7
      vertex 92.9134 96.3806 17.7
    endloop
  endfacet
  facet normal 0.89686 -0.442314 0
    outer loop
      vertex 95.3301 98.5 20.7
      vertex 95.6194 99.0866 17.7
      vertex 95.6194 99.0866 20.7
    endloop
  endfacet
  facet normal 0.89686 -0.442314 0
    outer loop
      vertex 95.6194 99.0866 17.7
      vertex 95.3301 98.5 20.7
      vertex 95.3301 98.5 17.7
    endloop
  endfacet
  facet normal 0 -1 0
    outer loop
      vertex 17 96 17.7
      vertex 91 96 20.7
      vertex 17 96 20.7
    endloop
  endfacet
  facet normal 0 -1 -0
    outer loop
      vertex 91 96 20.7
      vertex 17 96 17.7
      vertex 91 96 17.7
    endloop
  endfacet
  facet normal 0.195087 -0.980786 0
    outer loop
      vertex 91.6526 96.0428 17.7
      vertex 92.2941 96.1704 20.7
      vertex 91.6526 96.0428 20.7
    endloop
  endfacet
  facet normal 0.195087 -0.980786 0
    outer loop
      vertex 92.2941 96.1704 20.7
      vertex 91.6526 96.0428 17.7
      vertex 92.2941 96.1704 17.7
    endloop
  endfacet
  facet normal 0.89698 0.442072 0
    outer loop
      vertex 95.6194 128.913 20.7
      vertex 95.3301 129.5 17.7
      vertex 95.3301 129.5 20.7
    endloop
  endfacet
  facet normal 0.89698 0.442072 0
    outer loop
      vertex 95.3301 129.5 17.7
      vertex 95.6194 128.913 20.7
      vertex 95.6194 128.913 17.7
    endloop
  endfacet
  facet normal -0.89686 -0.442314 0
    outer loop
      vertex 12.6699 98.5 17.7
      vertex 12.3806 99.0866 20.7
      vertex 12.3806 99.0866 17.7
    endloop
  endfacet
  facet normal -0.89686 -0.442314 0
    outer loop
      vertex 12.3806 99.0866 20.7
      vertex 12.6699 98.5 17.7
      vertex 12.6699 98.5 20.7
    endloop
  endfacet
  facet normal -0.195087 -0.980786 0
    outer loop
      vertex 15.7059 96.1704 17.7
      vertex 16.3474 96.0428 20.7
      vertex 15.7059 96.1704 20.7
    endloop
  endfacet
  facet normal -0.195087 -0.980786 -0
    outer loop
      vertex 16.3474 96.0428 20.7
      vertex 15.7059 96.1704 17.7
      vertex 16.3474 96.0428 17.7
    endloop
  endfacet
  facet normal 0.997859 0.0654033 0
    outer loop
      vertex 96 127 20.7
      vertex 95.9572 127.653 17.7
      vertex 95.9572 127.653 20.7
    endloop
  endfacet
  facet normal 0.997859 0.0654033 0
    outer loop
      vertex 95.9572 127.653 17.7
      vertex 96 127 20.7
      vertex 96 127 17.7
    endloop
  endfacet
  facet normal -0.322503 0.946569 0
    outer loop
      vertex 15.7059 131.83 17.7
      vertex 15.0866 131.619 20.7
      vertex 15.7059 131.83 20.7
    endloop
  endfacet
  facet normal -0.322503 0.946569 0
    outer loop
      vertex 15.0866 131.619 20.7
      vertex 15.7059 131.83 17.7
      vertex 15.0866 131.619 17.7
    endloop
  endfacet
  facet normal -1 0 0
    outer loop
      vertex 12 101 17.7
      vertex 12 127 20.7
      vertex 12 127 17.7
    endloop
  endfacet
  facet normal -1 -0 0
    outer loop
      vertex 12 127 20.7
      vertex 12 101 17.7
      vertex 12 101 20.7
    endloop
  endfacet
  facet normal 0.555512 -0.831509 0
    outer loop
      vertex 93.5 96.6699 17.7
      vertex 94.0438 97.0332 20.7
      vertex 93.5 96.6699 20.7
    endloop
  endfacet
  facet normal 0.555512 -0.831509 0
    outer loop
      vertex 94.0438 97.0332 20.7
      vertex 93.5 96.6699 17.7
      vertex 94.0438 97.0332 17.7
    endloop
  endfacet
  facet normal -0.946941 -0.321407 0
    outer loop
      vertex 12.3806 99.0866 17.7
      vertex 12.1704 99.7059 20.7
      vertex 12.1704 99.7059 17.7
    endloop
  endfacet
  facet normal -0.946941 -0.321407 0
    outer loop
      vertex 12.1704 99.7059 20.7
      vertex 12.3806 99.0866 17.7
      vertex 12.3806 99.0866 20.7
    endloop
  endfacet
  facet normal -0.321407 -0.946941 0
    outer loop
      vertex 15.0866 96.3806 17.7
      vertex 15.7059 96.1704 20.7
      vertex 15.0866 96.3806 20.7
    endloop
  endfacet
  facet normal -0.321407 -0.946941 -0
    outer loop
      vertex 15.7059 96.1704 20.7
      vertex 15.0866 96.3806 17.7
      vertex 15.7059 96.1704 17.7
    endloop
  endfacet
  facet normal -0.0654432 -0.997856 0
    outer loop
      vertex 16.3474 96.0428 17.7
      vertex 17 96 20.7
      vertex 16.3474 96.0428 20.7
    endloop
  endfacet
  facet normal -0.0654432 -0.997856 -0
    outer loop
      vertex 17 96 20.7
      vertex 16.3474 96.0428 17.7
      vertex 17 96 17.7
    endloop
  endfacet
  facet normal 0.442314 -0.89686 0
    outer loop
      vertex 92.9134 96.3806 17.7
      vertex 93.5 96.6699 20.7
      vertex 92.9134 96.3806 20.7
    endloop
  endfacet
  facet normal 0.442314 -0.89686 0
    outer loop
      vertex 93.5 96.6699 20.7
      vertex 92.9134 96.3806 17.7
      vertex 93.5 96.6699 17.7
    endloop
  endfacet
  facet normal 0.980763 -0.195204 0
    outer loop
      vertex 95.8296 99.7059 20.7
      vertex 95.9572 100.347 17.7
      vertex 95.9572 100.347 20.7
    endloop
  endfacet
  facet normal 0.980763 -0.195204 0
    outer loop
      vertex 95.9572 100.347 17.7
      vertex 95.8296 99.7059 20.7
      vertex 95.8296 99.7059 17.7
    endloop
  endfacet
  facet normal -0.659165 0.751998 0
    outer loop
      vertex 13.9562 130.967 17.7
      vertex 13.4645 130.536 20.7
      vertex 13.9562 130.967 20.7
    endloop
  endfacet
  facet normal -0.659165 0.751998 0
    outer loop
      vertex 13.4645 130.536 20.7
      vertex 13.9562 130.967 17.7
      vertex 13.4645 130.536 17.7
    endloop
  endfacet
  facet normal 0 1 -0
    outer loop
      vertex 91 132 17.7
      vertex 17 132 20.7
      vertex 91 132 20.7
    endloop
  endfacet
  facet normal 0 1 0
    outer loop
      vertex 17 132 20.7
      vertex 91 132 17.7
      vertex 17 132 17.7
    endloop
  endfacet
  facet normal 0.831603 0.55537 0
    outer loop
      vertex 95.3301 129.5 20.7
      vertex 94.9668 130.044 17.7
      vertex 94.9668 130.044 20.7
    endloop
  endfacet
  facet normal 0.831603 0.55537 0
    outer loop
      vertex 94.9668 130.044 17.7
      vertex 95.3301 129.5 20.7
      vertex 95.3301 129.5 17.7
    endloop
  endfacet
  facet normal -0.194204 0.980961 0
    outer loop
      vertex 16.3474 131.957 17.7
      vertex 15.7059 131.83 20.7
      vertex 16.3474 131.957 20.7
    endloop
  endfacet
  facet normal -0.194204 0.980961 0
    outer loop
      vertex 15.7059 131.83 20.7
      vertex 16.3474 131.957 17.7
      vertex 15.7059 131.83 17.7
    endloop
  endfacet
  facet normal -0.0657477 0.997836 0
    outer loop
      vertex 17 132 17.7
      vertex 16.3474 131.957 20.7
      vertex 17 132 20.7
    endloop
  endfacet
  facet normal -0.0657477 0.997836 0
    outer loop
      vertex 16.3474 131.957 20.7
      vertex 17 132 17.7
      vertex 16.3474 131.957 17.7
    endloop
  endfacet
  facet normal -0.946894 0.321546 0
    outer loop
      vertex 12.1704 128.294 17.7
      vertex 12.3806 128.913 20.7
      vertex 12.3806 128.913 17.7
    endloop
  endfacet
  facet normal -0.946894 0.321546 0
    outer loop
      vertex 12.3806 128.913 20.7
      vertex 12.1704 128.294 17.7
      vertex 12.1704 128.294 20.7
    endloop
  endfacet
  facet normal -0.555194 0.831721 0
    outer loop
      vertex 14.5 131.33 17.7
      vertex 13.9562 130.967 20.7
      vertex 14.5 131.33 20.7
    endloop
  endfacet
  facet normal -0.555194 0.831721 0
    outer loop
      vertex 13.9562 130.967 20.7
      vertex 14.5 131.33 17.7
      vertex 13.9562 130.967 17.7
    endloop
  endfacet
  facet normal -0.980757 0.195233 0
    outer loop
      vertex 12.0428 127.653 17.7
      vertex 12.1704 128.294 20.7
      vertex 12.1704 128.294 17.7
    endloop
  endfacet
  facet normal -0.980757 0.195233 0
    outer loop
      vertex 12.1704 128.294 20.7
      vertex 12.0428 127.653 17.7
      vertex 12.0428 127.653 20.7
    endloop
  endfacet
  facet normal -0.89698 0.442072 0
    outer loop
      vertex 12.3806 128.913 17.7
      vertex 12.6699 129.5 20.7
      vertex 12.6699 129.5 17.7
    endloop
  endfacet
  facet normal -0.89698 0.442072 0
    outer loop
      vertex 12.6699 129.5 20.7
      vertex 12.3806 128.913 17.7
      vertex 12.3806 128.913 20.7
    endloop
  endfacet
  facet normal 0.0657477 0.997836 -0
    outer loop
      vertex 91.6526 131.957 17.7
      vertex 91 132 20.7
      vertex 91.6526 131.957 20.7
    endloop
  endfacet
  facet normal 0.0657477 0.997836 0
    outer loop
      vertex 91 132 20.7
      vertex 91.6526 131.957 17.7
      vertex 91 132 17.7
    endloop
  endfacet
  facet normal 0.75197 0.659197 0
    outer loop
      vertex 94.9668 130.044 20.7
      vertex 94.5355 130.536 17.7
      vertex 94.5355 130.536 20.7
    endloop
  endfacet
  facet normal 0.75197 0.659197 0
    outer loop
      vertex 94.5355 130.536 17.7
      vertex 94.9668 130.044 20.7
      vertex 94.9668 130.044 17.7
    endloop
  endfacet
  facet normal 0.441945 0.897042 -0
    outer loop
      vertex 93.5 131.33 17.7
      vertex 92.9134 131.619 20.7
      vertex 93.5 131.33 20.7
    endloop
  endfacet
  facet normal 0.441945 0.897042 0
    outer loop
      vertex 92.9134 131.619 20.7
      vertex 93.5 131.33 17.7
      vertex 92.9134 131.619 17.7
    endloop
  endfacet
  facet normal -0.442314 -0.89686 0
    outer loop
      vertex 14.5 96.6699 17.7
      vertex 15.0866 96.3806 20.7
      vertex 14.5 96.6699 20.7
    endloop
  endfacet
  facet normal -0.442314 -0.89686 -0
    outer loop
      vertex 15.0866 96.3806 20.7
      vertex 14.5 96.6699 17.7
      vertex 15.0866 96.3806 17.7
    endloop
  endfacet
  facet normal -0.997859 -0.0654033 0
    outer loop
      vertex 12.0428 100.347 17.7
      vertex 12 101 20.7
      vertex 12 101 17.7
    endloop
  endfacet
  facet normal -0.997859 -0.0654033 0
    outer loop
      vertex 12 101 20.7
      vertex 12.0428 100.347 17.7
      vertex 12.0428 100.347 20.7
    endloop
  endfacet
  facet normal 0 0 -1
    outer loop
      vertex 90.5 103.25 17.7
      vertex 96 101 17.7
      vertex 95.9572 100.347 17.7
    endloop
  endfacet
  facet normal 0 0 -1
    outer loop
      vertex 96 101 17.7
      vertex 90.5 103.25 17.7
      vertex 96 127 17.7
    endloop
  endfacet
  facet normal 0 0 -1
    outer loop
      vertex 90.5 103.25 17.7
      vertex 95.9572 100.347 17.7
      vertex 95.8296 99.7059 17.7
    endloop
  endfacet
  facet normal 0 0 -1
    outer loop
      vertex 90.5 124.75 17.7
      vertex 96 127 17.7
      vertex 90.5 103.25 17.7
    endloop
  endfacet
  facet normal 0 0 -1
    outer loop
      vertex 90.5 103.25 17.7
      vertex 95.8296 99.7059 17.7
      vertex 95.6194 99.0866 17.7
    endloop
  endfacet
  facet normal -0 0 -1
    outer loop
      vertex 96 127 17.7
      vertex 90.5 124.75 17.7
      vertex 95.9572 127.653 17.7
    endloop
  endfacet
  facet normal 0 0 -1
    outer loop
      vertex 90.5 103.25 17.7
      vertex 95.6194 99.0866 17.7
      vertex 95.3301 98.5 17.7
    endloop
  endfacet
  facet normal -0 0 -1
    outer loop
      vertex 95.9572 127.653 17.7
      vertex 90.5 124.75 17.7
      vertex 95.8296 128.294 17.7
    endloop
  endfacet
  facet normal 0 0 -1
    outer loop
      vertex 90.5 103.25 17.7
      vertex 95.3301 98.5 17.7
      vertex 94.9668 97.9562 17.7
    endloop
  endfacet
  facet normal -0 0 -1
    outer loop
      vertex 95.8296 128.294 17.7
      vertex 90.5 124.75 17.7
      vertex 95.6194 128.913 17.7
    endloop
  endfacet
  facet normal 0 0 -1
    outer loop
      vertex 90.5 103.25 17.7
      vertex 94.9668 97.9562 17.7
      vertex 94.5355 97.4645 17.7
    endloop
  endfacet
  facet normal -0 0 -1
    outer loop
      vertex 95.6194 128.913 17.7
      vertex 90.5 124.75 17.7
      vertex 95.3301 129.5 17.7
    endloop
  endfacet
  facet normal 0 0 -1
    outer loop
      vertex 90.5 103.25 17.7
      vertex 94.5355 97.4645 17.7
      vertex 94.0438 97.0332 17.7
    endloop
  endfacet
  facet normal -0 0 -1
    outer loop
      vertex 95.3301 129.5 17.7
      vertex 90.5 124.75 17.7
      vertex 94.9668 130.044 17.7
    endloop
  endfacet
  facet normal 0 0 -1
    outer loop
      vertex 90.5 103.25 17.7
      vertex 94.0438 97.0332 17.7
      vertex 93.5 96.6699 17.7
    endloop
  endfacet
  facet normal -0 0 -1
    outer loop
      vertex 94.9668 130.044 17.7
      vertex 90.5 124.75 17.7
      vertex 94.5355 130.536 17.7
    endloop
  endfacet
  facet normal 0 0 -1
    outer loop
      vertex 90.5 103.25 17.7
      vertex 93.5 96.6699 17.7
      vertex 92.9134 96.3806 17.7
    endloop
  endfacet
  facet normal -0 0 -1
    outer loop
      vertex 94.5355 130.536 17.7
      vertex 90.5 124.75 17.7
      vertex 94.0438 130.967 17.7
    endloop
  endfacet
  facet normal 0 0 -1
    outer loop
      vertex 90.5 103.25 17.7
      vertex 92.9134 96.3806 17.7
      vertex 92.2941 96.1704 17.7
    endloop
  endfacet
  facet normal -0 0 -1
    outer loop
      vertex 94.0438 130.967 17.7
      vertex 90.5 124.75 17.7
      vertex 93.5 131.33 17.7
    endloop
  endfacet
  facet normal 0 0 -1
    outer loop
      vertex 90.5 103.25 17.7
      vertex 92.2941 96.1704 17.7
      vertex 91.6526 96.0428 17.7
    endloop
  endfacet
  facet normal -0 0 -1
    outer loop
      vertex 93.5 131.33 17.7
      vertex 90.5 124.75 17.7
      vertex 92.9134 131.619 17.7
    endloop
  endfacet
  facet normal 0 0 -1
    outer loop
      vertex 90.5 103.25 17.7
      vertex 91.6526 96.0428 17.7
      vertex 91 96 17.7
    endloop
  endfacet
  facet normal -0 0 -1
    outer loop
      vertex 92.9134 131.619 17.7
      vertex 90.5 124.75 17.7
      vertex 92.2941 131.83 17.7
    endloop
  endfacet
  facet normal -0 0 -1
    outer loop
      vertex 92.2941 131.83 17.7
      vertex 90.5 124.75 17.7
      vertex 91.6526 131.957 17.7
    endloop
  endfacet
  facet normal 0 0 -1
    outer loop
      vertex 91 96 17.7
      vertex 17.5 103.25 17.7
      vertex 90.5 103.25 17.7
    endloop
  endfacet
  facet normal 0 0 -1
    outer loop
      vertex 16.3474 96.0428 17.7
      vertex 17.5 103.25 17.7
      vertex 17 96 17.7
    endloop
  endfacet
  facet normal 0 0 -1
    outer loop
      vertex 17 96 17.7
      vertex 17.5 103.25 17.7
      vertex 91 96 17.7
    endloop
  endfacet
  facet normal -0 0 -1
    outer loop
      vertex 91.6526 131.957 17.7
      vertex 90.5 124.75 17.7
      vertex 91 132 17.7
    endloop
  endfacet
  facet normal 0 0 -1
    outer loop
      vertex 17.5 124.75 17.7
      vertex 91 132 17.7
      vertex 90.5 124.75 17.7
    endloop
  endfacet
  facet normal 0 0 -1
    outer loop
      vertex 17.5 124.75 17.7
      vertex 17 132 17.7
      vertex 91 132 17.7
    endloop
  endfacet
  facet normal -0 0 -1
    outer loop
      vertex 17.5 103.25 17.7
      vertex 12 101 17.7
      vertex 17.5 124.75 17.7
    endloop
  endfacet
  facet normal 0 0 -1
    outer loop
      vertex 15.7059 96.1704 17.7
      vertex 17.5 103.25 17.7
      vertex 16.3474 96.0428 17.7
    endloop
  endfacet
  facet normal 0 0 -1
    outer loop
      vertex 12 127 17.7
      vertex 17.5 124.75 17.7
      vertex 12 101 17.7
    endloop
  endfacet
  facet normal 0 0 -1
    outer loop
      vertex 15.0866 96.3806 17.7
      vertex 17.5 103.25 17.7
      vertex 15.7059 96.1704 17.7
    endloop
  endfacet
  facet normal 0 -0 -1
    outer loop
      vertex 12.0428 127.653 17.7
      vertex 17.5 124.75 17.7
      vertex 12 127 17.7
    endloop
  endfacet
  facet normal 0 0 -1
    outer loop
      vertex 14.5 96.6699 17.7
      vertex 17.5 103.25 17.7
      vertex 15.0866 96.3806 17.7
    endloop
  endfacet
  facet normal 0 0 -1
    outer loop
      vertex 17.5 124.75 17.7
      vertex 16.3474 131.957 17.7
      vertex 17 132 17.7
    endloop
  endfacet
  facet normal 0 0 -1
    outer loop
      vertex 13.9562 97.0332 17.7
      vertex 17.5 103.25 17.7
      vertex 14.5 96.6699 17.7
    endloop
  endfacet
  facet normal 0 0 -1
    outer loop
      vertex 17.5 124.75 17.7
      vertex 15.7059 131.83 17.7
      vertex 16.3474 131.957 17.7
    endloop
  endfacet
  facet normal 0 0 -1
    outer loop
      vertex 13.4645 97.4645 17.7
      vertex 17.5 103.25 17.7
      vertex 13.9562 97.0332 17.7
    endloop
  endfacet
  facet normal 0 0 -1
    outer loop
      vertex 17.5 124.75 17.7
      vertex 15.0866 131.619 17.7
      vertex 15.7059 131.83 17.7
    endloop
  endfacet
  facet normal 0 0 -1
    outer loop
      vertex 13.0332 97.9562 17.7
      vertex 17.5 103.25 17.7
      vertex 13.4645 97.4645 17.7
    endloop
  endfacet
  facet normal 0 0 -1
    outer loop
      vertex 17.5 124.75 17.7
      vertex 14.5 131.33 17.7
      vertex 15.0866 131.619 17.7
    endloop
  endfacet
  facet normal 0 0 -1
    outer loop
      vertex 12.6699 98.5 17.7
      vertex 17.5 103.25 17.7
      vertex 13.0332 97.9562 17.7
    endloop
  endfacet
  facet normal 0 0 -1
    outer loop
      vertex 17.5 124.75 17.7
      vertex 13.9562 130.967 17.7
      vertex 14.5 131.33 17.7
    endloop
  endfacet
  facet normal 0 0 -1
    outer loop
      vertex 12.3806 99.0866 17.7
      vertex 17.5 103.25 17.7
      vertex 12.6699 98.5 17.7
    endloop
  endfacet
  facet normal 0 0 -1
    outer loop
      vertex 17.5 124.75 17.7
      vertex 13.4645 130.536 17.7
      vertex 13.9562 130.967 17.7
    endloop
  endfacet
  facet normal 0 0 -1
    outer loop
      vertex 12.1704 99.7059 17.7
      vertex 17.5 103.25 17.7
      vertex 12.3806 99.0866 17.7
    endloop
  endfacet
  facet normal 0 0 -1
    outer loop
      vertex 17.5 124.75 17.7
      vertex 13.0332 130.044 17.7
      vertex 13.4645 130.536 17.7
    endloop
  endfacet
  facet normal 0 0 -1
    outer loop
      vertex 12.0428 100.347 17.7
      vertex 17.5 103.25 17.7
      vertex 12.1704 99.7059 17.7
    endloop
  endfacet
  facet normal 0 0 -1
    outer loop
      vertex 17.5 124.75 17.7
      vertex 12.6699 129.5 17.7
      vertex 13.0332 130.044 17.7
    endloop
  endfacet
  facet normal 0 0 -1
    outer loop
      vertex 17.5 103.25 17.7
      vertex 12.0428 100.347 17.7
      vertex 12 101 17.7
    endloop
  endfacet
  facet normal 0 0 -1
    outer loop
      vertex 17.5 124.75 17.7
      vertex 12.3806 128.913 17.7
      vertex 12.6699 129.5 17.7
    endloop
  endfacet
  facet normal 0 0 -1
    outer loop
      vertex 17.5 124.75 17.7
      vertex 12.1704 128.294 17.7
      vertex 12.3806 128.913 17.7
    endloop
  endfacet
  facet normal 0 0 -1
    outer loop
      vertex 17.5 124.75 17.7
      vertex 12.0428 127.653 17.7
      vertex 12.1704 128.294 17.7
    endloop
  endfacet
  facet normal -0.659424 -0.751771 0
    outer loop
      vertex 13.4645 97.4645 17.7
      vertex 13.9562 97.0332 20.7
      vertex 13.4645 97.4645 20.7
    endloop
  endfacet
  facet normal -0.659424 -0.751771 -0
    outer loop
      vertex 13.9562 97.0332 20.7
      vertex 13.4645 97.4645 17.7
      vertex 13.9562 97.0332 17.7
    endloop
  endfacet
  facet normal 0.322503 0.946569 -0
    outer loop
      vertex 92.9134 131.619 17.7
      vertex 92.2941 131.83 20.7
      vertex 92.9134 131.619 20.7
    endloop
  endfacet
  facet normal 0.322503 0.946569 0
    outer loop
      vertex 92.2941 131.83 20.7
      vertex 92.9134 131.619 17.7
      vertex 92.2941 131.83 17.7
    endloop
  endfacet
  facet normal -0.441945 0.897042 0
    outer loop
      vertex 15.0866 131.619 17.7
      vertex 14.5 131.33 20.7
      vertex 15.0866 131.619 20.7
    endloop
  endfacet
  facet normal -0.441945 0.897042 0
    outer loop
      vertex 14.5 131.33 20.7
      vertex 15.0866 131.619 17.7
      vertex 14.5 131.33 17.7
    endloop
  endfacet
  facet normal 1 -0 0
    outer loop
      vertex 96 101 20.7
      vertex 96 127 17.7
      vertex 96 127 20.7
    endloop
  endfacet
  facet normal 1 0 0
    outer loop
      vertex 96 127 17.7
      vertex 96 101 20.7
      vertex 96 101 17.7
    endloop
  endfacet
  facet normal 0.980757 0.195233 0
    outer loop
      vertex 95.9572 127.653 20.7
      vertex 95.8296 128.294 17.7
      vertex 95.8296 128.294 20.7
    endloop
  endfacet
  facet normal 0.980757 0.195233 0
    outer loop
      vertex 95.8296 128.294 17.7
      vertex 95.9572 127.653 20.7
      vertex 95.9572 127.653 17.7
    endloop
  endfacet
  facet normal -0.997859 0.0654033 0
    outer loop
      vertex 12 127 17.7
      vertex 12.0428 127.653 20.7
      vertex 12.0428 127.653 17.7
    endloop
  endfacet
  facet normal -0.997859 0.0654033 0
    outer loop
      vertex 12.0428 127.653 20.7
      vertex 12 127 17.7
      vertex 12 127 20.7
    endloop
  endfacet
  facet normal -0.831603 0.55537 0
    outer loop
      vertex 12.6699 129.5 17.7
      vertex 13.0332 130.044 20.7
      vertex 13.0332 130.044 17.7
    endloop
  endfacet
  facet normal -0.831603 0.55537 0
    outer loop
      vertex 13.0332 130.044 20.7
      vertex 12.6699 129.5 17.7
      vertex 12.6699 129.5 20.7
    endloop
  endfacet
  facet normal 0 0 1
    outer loop
      vertex 90.5 124.75 20.7
      vertex 96 127 20.7
      vertex 95.9572 127.653 20.7
    endloop
  endfacet
  facet normal 0 0 1
    outer loop
      vertex 96 127 20.7
      vertex 90.5 124.75 20.7
      vertex 96 101 20.7
    endloop
  endfacet
  facet normal 0 0 1
    outer loop
      vertex 90.5 124.75 20.7
      vertex 95.9572 127.653 20.7
      vertex 95.8296 128.294 20.7
    endloop
  endfacet
  facet normal -0 0 1
    outer loop
      vertex 90.5 103.25 20.7
      vertex 96 101 20.7
      vertex 90.5 124.75 20.7
    endloop
  endfacet
  facet normal 0 0 1
    outer loop
      vertex 90.5 124.75 20.7
      vertex 95.8296 128.294 20.7
      vertex 95.6194 128.913 20.7
    endloop
  endfacet
  facet normal 0 0 1
    outer loop
      vertex 96 101 20.7
      vertex 90.5 103.25 20.7
      vertex 95.9572 100.347 20.7
    endloop
  endfacet
  facet normal 0 0 1
    outer loop
      vertex 90.5 124.75 20.7
      vertex 95.6194 128.913 20.7
      vertex 95.3301 129.5 20.7
    endloop
  endfacet
  facet normal 0 0 1
    outer loop
      vertex 95.9572 100.347 20.7
      vertex 90.5 103.25 20.7
      vertex 95.8296 99.7059 20.7
    endloop
  endfacet
  facet normal 0 0 1
    outer loop
      vertex 90.5 124.75 20.7
      vertex 95.3301 129.5 20.7
      vertex 94.9668 130.044 20.7
    endloop
  endfacet
  facet normal 0 0 1
    outer loop
      vertex 95.8296 99.7059 20.7
      vertex 90.5 103.25 20.7
      vertex 95.6194 99.0866 20.7
    endloop
  endfacet
  facet normal 0 0 1
    outer loop
      vertex 90.5 124.75 20.7
      vertex 94.9668 130.044 20.7
      vertex 94.5355 130.536 20.7
    endloop
  endfacet
  facet normal 0 0 1
    outer loop
      vertex 95.6194 99.0866 20.7
      vertex 90.5 103.25 20.7
      vertex 95.3301 98.5 20.7
    endloop
  endfacet
  facet normal 0 0 1
    outer loop
      vertex 90.5 124.75 20.7
      vertex 94.5355 130.536 20.7
      vertex 94.0438 130.967 20.7
    endloop
  endfacet
  facet normal 0 0 1
    outer loop
      vertex 95.3301 98.5 20.7
      vertex 90.5 103.25 20.7
      vertex 94.9668 97.9562 20.7
    endloop
  endfacet
  facet normal 0 0 1
    outer loop
      vertex 90.5 124.75 20.7
      vertex 94.0438 130.967 20.7
      vertex 93.5 131.33 20.7
    endloop
  endfacet
  facet normal 0 0 1
    outer loop
      vertex 94.9668 97.9562 20.7
      vertex 90.5 103.25 20.7
      vertex 94.5355 97.4645 20.7
    endloop
  endfacet
  facet normal 0 0 1
    outer loop
      vertex 90.5 124.75 20.7
      vertex 93.5 131.33 20.7
      vertex 92.9134 131.619 20.7
    endloop
  endfacet
  facet normal 0 0 1
    outer loop
      vertex 94.5355 97.4645 20.7
      vertex 90.5 103.25 20.7
      vertex 94.0438 97.0332 20.7
    endloop
  endfacet
  facet normal 0 0 1
    outer loop
      vertex 90.5 124.75 20.7
      vertex 92.9134 131.619 20.7
      vertex 92.2941 131.83 20.7
    endloop
  endfacet
  facet normal 0 0 1
    outer loop
      vertex 94.0438 97.0332 20.7
      vertex 90.5 103.25 20.7
      vertex 93.5 96.6699 20.7
    endloop
  endfacet
  facet normal 0 0 1
    outer loop
      vertex 90.5 124.75 20.7
      vertex 92.2941 131.83 20.7
      vertex 91.6526 131.957 20.7
    endloop
  endfacet
  facet normal 0 0 1
    outer loop
      vertex 93.5 96.6699 20.7
      vertex 90.5 103.25 20.7
      vertex 92.9134 96.3806 20.7
    endloop
  endfacet
  facet normal 0 0 1
    outer loop
      vertex 90.5 124.75 20.7
      vertex 91.6526 131.957 20.7
      vertex 91 132 20.7
    endloop
  endfacet
  facet normal 0 0 1
    outer loop
      vertex 92.9134 96.3806 20.7
      vertex 90.5 103.25 20.7
      vertex 92.2941 96.1704 20.7
    endloop
  endfacet
  facet normal 0 0 1
    outer loop
      vertex 92.2941 96.1704 20.7
      vertex 90.5 103.25 20.7
      vertex 91.6526 96.0428 20.7
    endloop
  endfacet
  facet normal 0 0 1
    outer loop
      vertex 91 132 20.7
      vertex 17.5 124.75 20.7
      vertex 90.5 124.75 20.7
    endloop
  endfacet
  facet normal -0 0 1
    outer loop
      vertex 16.3474 131.957 20.7
      vertex 17.5 124.75 20.7
      vertex 17 132 20.7
    endloop
  endfacet
  facet normal -0 0 1
    outer loop
      vertex 17 132 20.7
      vertex 17.5 124.75 20.7
      vertex 91 132 20.7
    endloop
  endfacet
  facet normal 0 0 1
    outer loop
      vertex 91.6526 96.0428 20.7
      vertex 90.5 103.25 20.7
      vertex 91 96 20.7
    endloop
  endfacet
  facet normal -0 0 1
    outer loop
      vertex 17.5 103.25 20.7
      vertex 91 96 20.7
      vertex 90.5 103.25 20.7
    endloop
  endfacet
  facet normal 0 0 1
    outer loop
      vertex 17.5 103.25 20.7
      vertex 17 96 20.7
      vertex 91 96 20.7
    endloop
  endfacet
  facet normal 0 0 1
    outer loop
      vertex 17.5 124.75 20.7
      vertex 12 127 20.7
      vertex 17.5 103.25 20.7
    endloop
  endfacet
  facet normal -0 0 1
    outer loop
      vertex 15.7059 131.83 20.7
      vertex 17.5 124.75 20.7
      vertex 16.3474 131.957 20.7
    endloop
  endfacet
  facet normal 0 0 1
    outer loop
      vertex 12 101 20.7
      vertex 17.5 103.25 20.7
      vertex 12 127 20.7
    endloop
  endfacet
  facet normal -0 0 1
    outer loop
      vertex 15.0866 131.619 20.7
      vertex 17.5 124.75 20.7
      vertex 15.7059 131.83 20.7
    endloop
  endfacet
  facet normal 0 -0 1
    outer loop
      vertex 12.0428 100.347 20.7
      vertex 17.5 103.25 20.7
      vertex 12 101 20.7
    endloop
  endfacet
  facet normal -0 0 1
    outer loop
      vertex 14.5 131.33 20.7
      vertex 17.5 124.75 20.7
      vertex 15.0866 131.619 20.7
    endloop
  endfacet
  facet normal 0 0 1
    outer loop
      vertex 17.5 103.25 20.7
      vertex 16.3474 96.0428 20.7
      vertex 17 96 20.7
    endloop
  endfacet
  facet normal -0 0 1
    outer loop
      vertex 13.9562 130.967 20.7
      vertex 17.5 124.75 20.7
      vertex 14.5 131.33 20.7
    endloop
  endfacet
  facet normal 0 0 1
    outer loop
      vertex 17.5 103.25 20.7
      vertex 15.7059 96.1704 20.7
      vertex 16.3474 96.0428 20.7
    endloop
  endfacet
  facet normal -0 0 1
    outer loop
      vertex 13.4645 130.536 20.7
      vertex 17.5 124.75 20.7
      vertex 13.9562 130.967 20.7
    endloop
  endfacet
  facet normal 0 0 1
    outer loop
      vertex 17.5 103.25 20.7
      vertex 15.0866 96.3806 20.7
      vertex 15.7059 96.1704 20.7
    endloop
  endfacet
  facet normal -0 0 1
    outer loop
      vertex 13.0332 130.044 20.7
      vertex 17.5 124.75 20.7
      vertex 13.4645 130.536 20.7
    endloop
  endfacet
  facet normal 0 0 1
    outer loop
      vertex 17.5 103.25 20.7
      vertex 14.5 96.6699 20.7
      vertex 15.0866 96.3806 20.7
    endloop
  endfacet
  facet normal -0 0 1
    outer loop
      vertex 12.6699 129.5 20.7
      vertex 17.5 124.75 20.7
      vertex 13.0332 130.044 20.7
    endloop
  endfacet
  facet normal 0 0 1
    outer loop
      vertex 17.5 103.25 20.7
      vertex 13.9562 97.0332 20.7
      vertex 14.5 96.6699 20.7
    endloop
  endfacet
  facet normal -0 0 1
    outer loop
      vertex 12.3806 128.913 20.7
      vertex 17.5 124.75 20.7
      vertex 12.6699 129.5 20.7
    endloop
  endfacet
  facet normal 0 0 1
    outer loop
      vertex 17.5 103.25 20.7
      vertex 13.4645 97.4645 20.7
      vertex 13.9562 97.0332 20.7
    endloop
  endfacet
  facet normal -0 0 1
    outer loop
      vertex 12.1704 128.294 20.7
      vertex 17.5 124.75 20.7
      vertex 12.3806 128.913 20.7
    endloop
  endfacet
  facet normal 0 0 1
    outer loop
      vertex 17.5 103.25 20.7
      vertex 13.0332 97.9562 20.7
      vertex 13.4645 97.4645 20.7
    endloop
  endfacet
  facet normal -0 0 1
    outer loop
      vertex 12.0428 127.653 20.7
      vertex 17.5 124.75 20.7
      vertex 12.1704 128.294 20.7
    endloop
  endfacet
  facet normal 0 0 1
    outer loop
      vertex 17.5 103.25 20.7
      vertex 12.6699 98.5 20.7
      vertex 13.0332 97.9562 20.7
    endloop
  endfacet
  facet normal 0 0 1
    outer loop
      vertex 17.5 124.75 20.7
      vertex 12.0428 127.653 20.7
      vertex 12 127 20.7
    endloop
  endfacet
  facet normal 0 0 1
    outer loop
      vertex 17.5 103.25 20.7
      vertex 12.3806 99.0866 20.7
      vertex 12.6699 98.5 20.7
    endloop
  endfacet
  facet normal 0 0 1
    outer loop
      vertex 17.5 103.25 20.7
      vertex 12.1704 99.7059 20.7
      vertex 12.3806 99.0866 20.7
    endloop
  endfacet
  facet normal 0 0 1
    outer loop
      vertex 17.5 103.25 20.7
      vertex 12.0428 100.347 20.7
      vertex 12.1704 99.7059 20.7
    endloop
  endfacet
  facet normal -0.555512 -0.831509 0
    outer loop
      vertex 13.9562 97.0332 17.7
      vertex 14.5 96.6699 20.7
      vertex 13.9562 97.0332 20.7
    endloop
  endfacet
  facet normal -0.555512 -0.831509 -0
    outer loop
      vertex 14.5 96.6699 20.7
      vertex 13.9562 97.0332 17.7
      vertex 14.5 96.6699 17.7
    endloop
  endfacet
  facet normal -0.751771 -0.659424 0
    outer loop
      vertex 13.4645 97.4645 17.7
      vertex 13.0332 97.9562 20.7
      vertex 13.0332 97.9562 17.7
    endloop
  endfacet
  facet normal -0.751771 -0.659424 0
    outer loop
      vertex 13.0332 97.9562 20.7
      vertex 13.4645 97.4645 17.7
      vertex 13.4645 97.4645 20.7
    endloop
  endfacet
  facet normal -0.980763 -0.195204 0
    outer loop
      vertex 12.1704 99.7059 17.7
      vertex 12.0428 100.347 20.7
      vertex 12.0428 100.347 17.7
    endloop
  endfacet
  facet normal -0.980763 -0.195204 0
    outer loop
      vertex 12.0428 100.347 20.7
      vertex 12.1704 99.7059 17.7
      vertex 12.1704 99.7059 20.7
    endloop
  endfacet
  facet normal -0.831509 -0.555512 0
    outer loop
      vertex 13.0332 97.9562 17.7
      vertex 12.6699 98.5 20.7
      vertex 12.6699 98.5 17.7
    endloop
  endfacet
  facet normal -0.831509 -0.555512 0
    outer loop
      vertex 12.6699 98.5 20.7
      vertex 13.0332 97.9562 17.7
      vertex 13.0332 97.9562 20.7
    endloop
  endfacet
  facet normal 0.997859 -0.0654033 0
    outer loop
      vertex 95.9572 100.347 20.7
      vertex 96 101 17.7
      vertex 96 101 20.7
    endloop
  endfacet
  facet normal 0.997859 -0.0654033 0
    outer loop
      vertex 96 101 17.7
      vertex 95.9572 100.347 20.7
      vertex 95.9572 100.347 17.7
    endloop
  endfacet
  facet normal 0.946941 -0.321407 0
    outer loop
      vertex 95.6194 99.0866 20.7
      vertex 95.8296 99.7059 17.7
      vertex 95.8296 99.7059 20.7
    endloop
  endfacet
  facet normal 0.946941 -0.321407 0
    outer loop
      vertex 95.8296 99.7059 17.7
      vertex 95.6194 99.0866 20.7
      vertex 95.6194 99.0866 17.7
    endloop
  endfacet
  facet normal -0.75197 0.659197 0
    outer loop
      vertex 13.0332 130.044 17.7
      vertex 13.4645 130.536 20.7
      vertex 13.4645 130.536 17.7
    endloop
  endfacet
  facet normal -0.75197 0.659197 0
    outer loop
      vertex 13.4645 130.536 20.7
      vertex 13.0332 130.044 17.7
      vertex 13.0332 130.044 20.7
    endloop
  endfacet
  facet normal 0.659165 0.751998 -0
    outer loop
      vertex 94.5355 130.536 17.7
      vertex 94.0438 130.967 20.7
      vertex 94.5355 130.536 20.7
    endloop
  endfacet
  facet normal 0.659165 0.751998 0
    outer loop
      vertex 94.0438 130.967 20.7
      vertex 94.5355 130.536 17.7
      vertex 94.0438 130.967 17.7
    endloop
  endfacet
  facet normal 0.659424 -0.751771 0
    outer loop
      vertex 94.0438 97.0332 17.7
      vertex 94.5355 97.4645 20.7
      vertex 94.0438 97.0332 20.7
    endloop
  endfacet
  facet normal 0.659424 -0.751771 0
    outer loop
      vertex 94.5355 97.4645 20.7
      vertex 94.0438 97.0332 17.7
      vertex 94.5355 97.4645 17.7
    endloop
  endfacet
  facet normal 0.751771 -0.659424 0
    outer loop
      vertex 94.5355 97.4645 20.7
      vertex 94.9668 97.9562 17.7
      vertex 94.9668 97.9562 20.7
    endloop
  endfacet
  facet normal 0.751771 -0.659424 0
    outer loop
      vertex 94.9668 97.9562 17.7
      vertex 94.5355 97.4645 20.7
      vertex 94.5355 97.4645 17.7
    endloop
  endfacet
  facet normal 0.194204 0.980961 -0
    outer loop
      vertex 92.2941 131.83 17.7
      vertex 91.6526 131.957 20.7
      vertex 92.2941 131.83 20.7
    endloop
  endfacet
  facet normal 0.194204 0.980961 0
    outer loop
      vertex 91.6526 131.957 20.7
      vertex 92.2941 131.83 17.7
      vertex 91.6526 131.957 17.7
    endloop
  endfacet
  facet normal 0.946894 0.321546 0
    outer loop
      vertex 95.8296 128.294 20.7
      vertex 95.6194 128.913 17.7
      vertex 95.6194 128.913 20.7
    endloop
  endfacet
  facet normal 0.946894 0.321546 0
    outer loop
      vertex 95.6194 128.913 17.7
      vertex 95.8296 128.294 20.7
      vertex 95.8296 128.294 17.7
    endloop
  endfacet
  facet normal 0.555194 0.831721 -0
    outer loop
      vertex 94.0438 130.967 17.7
      vertex 93.5 131.33 20.7
      vertex 94.0438 130.967 20.7
    endloop
  endfacet
  facet normal 0.555194 0.831721 0
    outer loop
      vertex 93.5 131.33 20.7
      vertex 94.0438 130.967 17.7
      vertex 93.5 131.33 17.7
    endloop
  endfacet
  facet normal 0.831509 -0.555512 0
    outer loop
      vertex 94.9668 97.9562 20.7
      vertex 95.3301 98.5 17.7
      vertex 95.3301 98.5 20.7
    endloop
  endfacet
  facet normal 0.831509 -0.555512 0
    outer loop
      vertex 95.3301 98.5 17.7
      vertex 94.9668 97.9562 20.7
      vertex 94.9668 97.9562 17.7
    endloop
  endfacet
  facet normal -1 0 0
    outer loop
      vertex 90.5 103.25 17.7
      vertex 90.5 124.75 20.7
      vertex 90.5 124.75 17.7
    endloop
  endfacet
  facet normal -1 -0 0
    outer loop
      vertex 90.5 124.75 20.7
      vertex 90.5 103.25 17.7
      vertex 90.5 103.25 20.7
    endloop
  endfacet
  facet normal 1 -0 0
    outer loop
      vertex 17.5 103.25 20.7
      vertex 17.5 124.75 17.7
      vertex 17.5 124.75 20.7
    endloop
  endfacet
  facet normal 1 0 0
    outer loop
      vertex 17.5 124.75 17.7
      vertex 17.5 103.25 20.7
      vertex 17.5 103.25 17.7
    endloop
  endfacet
  facet normal 0 -1 0
    outer loop
      vertex 17.5 124.75 17.7
      vertex 90.5 124.75 20.7
      vertex 17.5 124.75 20.7
    endloop
  endfacet
  facet normal 0 -1 -0
    outer loop
      vertex 90.5 124.75 20.7
      vertex 17.5 124.75 17.7
      vertex 90.5 124.75 17.7
    endloop
  endfacet
  facet normal 0 1 -0
    outer loop
      vertex 90.5 103.25 17.7
      vertex 17.5 103.25 20.7
      vertex 90.5 103.25 20.7
    endloop
  endfacet
  facet normal 0 1 0
    outer loop
      vertex 17.5 103.25 20.7
      vertex 90.5 103.25 17.7
      vertex 17.5 103.25 17.7
    endloop
  endfacet
endsolid OpenSCAD_Model
