M48
; DRILL file {KiCad 7.0.11+dfsg-1build4} date Tue Oct  6 19:10:33 2026
; FORMAT={-:-/ absolute / metric / decimal}
; #@! TF.CreationDate,2026-10-06T19:10:33+00:00
; #@! TF.GenerationSoftware,Kicad,Pcbnew,7.0.11+dfsg-1build4
; #@! TF.FileFunction,Plated,1,2,PTH
FMAT,2
METRIC
; #@! TA.AperFunction,Plated,PTH,ViaDrill
T1C0.300
; #@! TA.AperFunction,Plated,PTH,ComponentDrill
T2C0.750
; #@! TA.AperFunction,Plated,PTH,ComponentDrill
T3C0.800
; #@! TA.AperFunction,Plated,PTH,ComponentDrill
T4C1.000
; #@! TA.AperFunction,Plated,PTH,ComponentDrill
T5C1.524
%
G90
G05
T1
X11.275Y-73.526
X11.275Y-76.494
X11.663Y-65.811
X11.663Y-70.095
X11.663Y-72.59
X12.184Y-65.159
X26.499Y-70.121
X26.506Y-80.352
X26.511Y-76.878
X32.125Y-45.052
X33.587Y-66.287
X35.05Y-69.734
X40.771Y-60.55
X43.207Y-62.061
X51.986Y-35.035
X52.602Y-71.06
X52.614Y-60.55
X52.666Y-78.231
X52.762Y-69.156
X55.511Y-67.886
X55.537Y-79.316
X56.441Y-73.307
X56.796Y-66.657
X61.058Y-68.555
X65.94Y-64.762
X67.297Y-70.424
X79.136Y-76.636
X80.588Y-70.006
X83.693Y-72.412
X85.309Y-70.006
X85.371Y-71.152
T2
X74.0Y-86.0
X76.0Y-86.0
T3
X21.425Y-8.42
X21.425Y-27.47
X21.425Y-46.52
X28.2Y-74.0
X29.045Y-8.42
X29.045Y-27.47
X29.045Y-46.52
X35.8Y-74.0
X40.475Y-8.42
X40.475Y-27.47
X40.475Y-46.52
X48.095Y-8.42
X48.095Y-27.47
X48.095Y-46.52
X59.525Y-8.42
X59.525Y-27.47
X59.525Y-46.52
X67.145Y-8.42
X67.145Y-27.47
X67.145Y-46.52
X78.575Y-8.42
X78.575Y-27.47
X78.575Y-46.52
X86.195Y-8.42
X86.195Y-27.47
X86.195Y-46.52
T4
X39.0Y-64.0
X39.0Y-66.54
X39.0Y-69.08
X39.0Y-71.62
X90.5Y-22.0
X90.5Y-24.54
X90.5Y-27.08
X90.5Y-29.62
X90.5Y-32.16
X90.5Y-34.7
X90.5Y-37.24
X90.5Y-39.78
T5
X12.615Y-10.96
X12.615Y-30.01
X12.615Y-49.06
X18.965Y-8.42
X18.965Y-27.47
X18.965Y-46.52
X31.665Y-10.96
X31.665Y-30.01
X31.665Y-49.06
X38.015Y-8.42
X38.015Y-27.47
X38.015Y-46.52
X50.715Y-10.96
X50.715Y-30.01
X50.715Y-49.06
X57.065Y-8.42
X57.065Y-27.47
X57.065Y-46.52
X69.765Y-10.96
X69.765Y-30.01
X69.765Y-49.06
X76.115Y-8.42
X76.115Y-27.47
X76.115Y-46.52
M30
