M48
; DRILL file {KiCad 7.0.11+dfsg-1build4} date Tue Oct  6 19:10:33 2026
; FORMAT={-:-/ absolute / metric / decimal}
; #@! TF.CreationDate,2026-10-06T19:10:33+00:00
; #@! TF.GenerationSoftware,Kicad,Pcbnew,7.0.11+dfsg-1build4
; #@! TF.FileFunction,NonPlated,1,2,NPTH
FMAT,2
METRIC
; #@! TA.AperFunction,NonPlated,NPTH,ComponentDrill
T1C1.750
; #@! TA.AperFunction,NonPlated,NPTH,ComponentDrill
T2C3.200
; #@! TA.AperFunction,NonPlated,NPTH,ComponentDrill
T3C3.988
%
G90
G05
T1
X11.345Y-13.5
X11.345Y-32.55
X11.345Y-51.6
X21.505Y-13.5
X21.505Y-32.55
X21.505Y-51.6
X30.395Y-13.5
X30.395Y-32.55
X30.395Y-51.6
X40.555Y-13.5
X40.555Y-32.55
X40.555Y-51.6
X49.445Y-13.5
X49.445Y-32.55
X49.445Y-51.6
X59.605Y-13.5
X59.605Y-32.55
X59.605Y-51.6
X68.495Y-13.5
X68.495Y-32.55
X68.495Y-51.6
X78.655Y-13.5
X78.655Y-32.55
X78.655Y-51.6
T2
X4.5Y-4.5
X4.5Y-85.5
X89.5Y-4.5
X89.5Y-85.5
T3
X16.425Y-13.5
X16.425Y-32.55
X16.425Y-51.6
X35.475Y-13.5
X35.475Y-32.55
X35.475Y-51.6
X54.525Y-13.5
X54.525Y-32.55
X54.525Y-51.6
X73.575Y-13.5
X73.575Y-32.55
X73.575Y-51.6
M30
