%TF.GenerationSoftware,KiCad,Pcbnew,7.0.11+dfsg-1build4*%
%TF.CreationDate,2026-10-06T19:10:33+00:00*%
%TF.ProjectId,DawnKey,4461776e-4b65-4792-9e6b-696361645f70,rev?*%
%TF.SameCoordinates,Original*%
%TF.FileFunction,Copper,L2,Bot*%
%TF.FilePolarity,Positive*%
%FSLAX46Y46*%
G04 Gerber Fmt 4.6, Leading zero omitted, Abs format (unit mm)*
G04 Created by KiCad (PCBNEW 7.0.11+dfsg-1build4) date 2026-10-06 19:10:33*
%MOMM*%
%LPD*%
G01*
G04 APERTURE LIST*
G04 Aperture macros list*
%AMRoundRect*
0 Rectangle with rounded corners*
0 $1 Rounding radius*
0 $2 $3 $4 $5 $6 $7 $8 $9 X,Y pos of 4 corners*
0 Add a 4 corners polygon primitive as box body*
4,1,4,$2,$3,$4,$5,$6,$7,$8,$9,$2,$3,0*
0 Add four circle primitives for the rounded corners*
1,1,$1+$1,$2,$3*
1,1,$1+$1,$4,$5*
1,1,$1+$1,$6,$7*
1,1,$1+$1,$8,$9*
0 Add four rect primitives between the rounded corners*
20,1,$1+$1,$2,$3,$4,$5,0*
20,1,$1+$1,$4,$5,$6,$7,0*
20,1,$1+$1,$6,$7,$8,$9,0*
20,1,$1+$1,$8,$9,$2,$3,0*%
G04 Aperture macros list end*
%TA.AperFunction,ComponentPad*%
%ADD10C,2.300000*%
%TD*%
%TA.AperFunction,ComponentPad*%
%ADD11R,1.700000X1.700000*%
%TD*%
%TA.AperFunction,ComponentPad*%
%ADD12O,1.700000X1.700000*%
%TD*%
%TA.AperFunction,SMDPad,CuDef*%
%ADD13RoundRect,0.225000X-0.225000X-0.275000X0.225000X-0.275000X0.225000X0.275000X-0.225000X0.275000X0*%
%TD*%
%TA.AperFunction,ComponentPad*%
%ADD14C,1.800000*%
%TD*%
%TA.AperFunction,SMDPad,CuDef*%
%ADD15R,0.980000X3.700000*%
%TD*%
%TA.AperFunction,SMDPad,CuDef*%
%ADD16RoundRect,0.250000X0.250000X0.475000X-0.250000X0.475000X-0.250000X-0.475000X0.250000X-0.475000X0*%
%TD*%
%TA.AperFunction,SMDPad,CuDef*%
%ADD17RoundRect,0.500000X-0.875000X-0.500000X0.875000X-0.500000X0.875000X0.500000X-0.875000X0.500000X0*%
%TD*%
%TA.AperFunction,SMDPad,CuDef*%
%ADD18RoundRect,0.150000X0.587500X0.150000X-0.587500X0.150000X-0.587500X-0.150000X0.587500X-0.150000X0*%
%TD*%
%TA.AperFunction,SMDPad,CuDef*%
%ADD19RoundRect,0.150000X0.875000X0.150000X-0.875000X0.150000X-0.875000X-0.150000X0.875000X-0.150000X0*%
%TD*%
%TA.AperFunction,SMDPad,CuDef*%
%ADD20RoundRect,0.085000X0.265000X0.085000X-0.265000X0.085000X-0.265000X-0.085000X0.265000X-0.085000X0*%
%TD*%
%TA.AperFunction,SMDPad,CuDef*%
%ADD21RoundRect,0.250000X1.000000X0.650000X-1.000000X0.650000X-1.000000X-0.650000X1.000000X-0.650000X0*%
%TD*%
%TA.AperFunction,ComponentPad*%
%ADD22RoundRect,0.250000X0.350000X0.625000X-0.350000X0.625000X-0.350000X-0.625000X0.350000X-0.625000X0*%
%TD*%
%TA.AperFunction,ComponentPad*%
%ADD23O,1.200000X1.750000*%
%TD*%
%TA.AperFunction,ViaPad*%
%ADD24C,0.600000*%
%TD*%
%TA.AperFunction,Conductor*%
%ADD25C,0.150000*%
%TD*%
%TA.AperFunction,Conductor*%
%ADD26C,0.200000*%
%TD*%
%TA.AperFunction,Conductor*%
%ADD27C,0.120000*%
%TD*%
%TA.AperFunction,Conductor*%
%ADD28C,0.300000*%
%TD*%
G04 APERTURE END LIST*
D10*
%TO.P,SW02,1*%
%TO.N,KEY_COL1*%
X31665000Y-49060000D03*
%TO.P,SW02,2*%
%TO.N,KINT02*%
X38015000Y-46520000D03*
%TD*%
%TO.P,SW04,1*%
%TO.N,KEY_COL3*%
X69765000Y-49060000D03*
%TO.P,SW04,2*%
%TO.N,KINT04*%
X76115000Y-46520000D03*
%TD*%
%TO.P,SW06,1*%
%TO.N,KEY_COL1*%
X31665000Y-30009999D03*
%TO.P,SW06,2*%
%TO.N,KINT06*%
X38015000Y-27470000D03*
%TD*%
%TO.P,SW09,1*%
%TO.N,KEY_COL0*%
X12615000Y-10960000D03*
%TO.P,SW09,2*%
%TO.N,KINT09*%
X18965000Y-8420000D03*
%TD*%
%TO.P,SW07,1*%
%TO.N,KEY_COL2*%
X50715000Y-30009999D03*
%TO.P,SW07,2*%
%TO.N,KINT07*%
X57065000Y-27470000D03*
%TD*%
%TO.P,SW03,1*%
%TO.N,KEY_COL2*%
X50715000Y-49060000D03*
%TO.P,SW03,2*%
%TO.N,KINT03*%
X57065000Y-46520000D03*
%TD*%
%TO.P,SW08,1*%
%TO.N,KEY_COL3*%
X69765000Y-30009999D03*
%TO.P,SW08,2*%
%TO.N,KINT08*%
X76115000Y-27470000D03*
%TD*%
%TO.P,SW01,1*%
%TO.N,KEY_COL0*%
X12615000Y-49060000D03*
%TO.P,SW01,2*%
%TO.N,KINT01*%
X18965000Y-46520000D03*
%TD*%
%TO.P,SW12,1*%
%TO.N,KEY_COL3*%
X69765000Y-10960000D03*
%TO.P,SW12,2*%
%TO.N,KINT12*%
X76115000Y-8420000D03*
%TD*%
%TO.P,SW05,1*%
%TO.N,KEY_COL0*%
X12615000Y-30009999D03*
%TO.P,SW05,2*%
%TO.N,KINT05*%
X18965000Y-27470000D03*
%TD*%
D11*
%TO.P,J1,1*%
%TO.N,GND*%
X90500000Y-22000000D03*
D12*
%TO.P,J1,2*%
%TO.N,3V3*%
X90500000Y-24540000D03*
%TO.P,J1,3*%
%TO.N,TFT_SCLK*%
X90500000Y-27080000D03*
%TO.P,J1,4*%
%TO.N,TFT_MOSI*%
X90500000Y-29620000D03*
%TO.P,J1,5*%
%TO.N,TFT_RST*%
X90500000Y-32160000D03*
%TO.P,J1,6*%
%TO.N,TFT_DC*%
X90500000Y-34700000D03*
%TO.P,J1,7*%
%TO.N,TFT_CS*%
X90500000Y-37240000D03*
%TO.P,J1,8*%
%TO.N,TFT_BL*%
X90500000Y-39780000D03*
%TD*%
D10*
%TO.P,SW11,1*%
%TO.N,KEY_COL2*%
X50715000Y-10960000D03*
%TO.P,SW11,2*%
%TO.N,KINT11*%
X57065000Y-8420000D03*
%TD*%
%TO.P,SW10,1*%
%TO.N,KEY_COL1*%
X31665000Y-10960000D03*
%TO.P,SW10,2*%
%TO.N,KINT10*%
X38015000Y-8420000D03*
%TD*%
D11*
%TO.P,J2,1*%
%TO.N,3V3*%
X39000000Y-64000000D03*
D12*
%TO.P,J2,2*%
%TO.N,GND*%
X39000000Y-66540000D03*
%TO.P,J2,3*%
%TO.N,I2C_SDA*%
X39000000Y-69080000D03*
%TO.P,J2,4*%
%TO.N,I2C_SCL*%
X39000000Y-71620000D03*
%TD*%
D13*
%TO.P,C2,1*%
%TO.N,3V3*%
X70500000Y-70000000D03*
%TO.P,C2,2*%
%TO.N,GND*%
X70500000Y-71600000D03*
%TD*%
%TO.P,R5,1*%
%TO.N,3V3*%
X64000000Y-63700000D03*
%TO.P,R5,2*%
%TO.N,I2C_SCL*%
X64000000Y-65300000D03*
%TD*%
D14*
%TO.P,D11,1*%
%TO.N,KINT11*%
X59525000Y-8420000D03*
%TO.P,D11,2*%
%TO.N,KEY_ROW2*%
X67145000Y-8420000D03*
%TD*%
%TO.P,D03,1*%
%TO.N,KINT03*%
X59525000Y-46520000D03*
%TO.P,D03,2*%
%TO.N,KEY_ROW0*%
X67145000Y-46520000D03*
%TD*%
%TO.P,D01,1*%
%TO.N,KINT01*%
X21425000Y-46520000D03*
%TO.P,D01,2*%
%TO.N,KEY_ROW0*%
X29045000Y-46520000D03*
%TD*%
D15*
%TO.P,L1,1*%
%TO.N,BAT_RAW*%
X88685000Y-69000000D03*
%TO.P,L1,2*%
%TO.N,BOOST_SW*%
X86315000Y-69000000D03*
%TD*%
D16*
%TO.P,C3,1*%
%TO.N,BAT_RAW*%
X79450000Y-68500000D03*
%TO.P,C3,2*%
%TO.N,GND*%
X77550000Y-68500000D03*
%TD*%
D14*
%TO.P,D02,1*%
%TO.N,KINT02*%
X40475000Y-46520000D03*
%TO.P,D02,2*%
%TO.N,KEY_ROW0*%
X48095000Y-46520000D03*
%TD*%
D13*
%TO.P,R6,1*%
%TO.N,BOOST_5V*%
X83200000Y-82000000D03*
%TO.P,R6,2*%
%TO.N,BOOST_FB*%
X84800000Y-82000000D03*
%TD*%
%TO.P,R2,1*%
%TO.N,RTC_INT*%
X56200000Y-65500000D03*
%TO.P,R2,2*%
%TO.N,3V3*%
X57800000Y-65500000D03*
%TD*%
D14*
%TO.P,D07,1*%
%TO.N,KINT07*%
X59525000Y-27470000D03*
%TO.P,D07,2*%
%TO.N,KEY_ROW1*%
X67145000Y-27470000D03*
%TD*%
D17*
%TO.P,U1,1*%
%TO.N,TFT_SCLK*%
X9379999Y-79620000D03*
%TO.P,U1,2*%
%TO.N,TFT_MOSI*%
X9379999Y-77080000D03*
%TO.P,U1,3*%
%TO.N,TFT_RST*%
X9379999Y-74540000D03*
%TO.P,U1,4*%
%TO.N,TFT_DC*%
X9379999Y-72000000D03*
%TO.P,U1,5*%
%TO.N,TFT_CS*%
X9379999Y-69460000D03*
%TO.P,U1,6*%
%TO.N,TFT_BL*%
X9379999Y-66920000D03*
%TO.P,U1,7*%
%TO.N,I2C_SCL*%
X9379999Y-64379999D03*
%TO.P,U1,8*%
%TO.N,I2C_SDA*%
X24620000Y-64379999D03*
%TO.P,U1,9*%
%TO.N,N/C*%
X24620000Y-66920000D03*
%TO.P,U1,10*%
X24620000Y-69460000D03*
%TO.P,U1,11*%
%TO.N,BUZZER_CTL*%
X24620000Y-72000000D03*
%TO.P,U1,12*%
%TO.N,3V3*%
X24620000Y-74540000D03*
%TO.P,U1,13*%
%TO.N,GND*%
X24620000Y-77080000D03*
%TO.P,U1,14*%
%TO.N,USB_5V*%
X24620000Y-79620000D03*
%TD*%
D14*
%TO.P,D05,1*%
%TO.N,KINT05*%
X21425000Y-27470000D03*
%TO.P,D05,2*%
%TO.N,KEY_ROW1*%
X29045000Y-27470000D03*
%TD*%
D13*
%TO.P,R3,1*%
%TO.N,3V3*%
X51000000Y-63700000D03*
%TO.P,R3,2*%
%TO.N,MCP_RESET*%
X51000000Y-65300000D03*
%TD*%
D18*
%TO.P,Q1,1*%
%TO.N,BUZZER_SW*%
X41437500Y-76050000D03*
%TO.P,Q1,2*%
%TO.N,GND*%
X41437500Y-77950000D03*
%TO.P,Q1,3*%
%TO.N,BUZZER*%
X39562500Y-77000000D03*
%TD*%
D13*
%TO.P,C4,1*%
%TO.N,BAT_RAW*%
X77700000Y-72000000D03*
%TO.P,C4,2*%
%TO.N,GND*%
X79300000Y-72000000D03*
%TD*%
D14*
%TO.P,D09,1*%
%TO.N,KINT09*%
X21425000Y-8420000D03*
%TO.P,D09,2*%
%TO.N,KEY_ROW2*%
X29045000Y-8420000D03*
%TD*%
D16*
%TO.P,C6,1*%
%TO.N,BOOST_5V*%
X90950000Y-79000000D03*
%TO.P,C6,2*%
%TO.N,GND*%
X89050000Y-79000000D03*
%TD*%
%TO.P,C5,1*%
%TO.N,BOOST_5V*%
X87950000Y-75500000D03*
%TO.P,C5,2*%
%TO.N,GND*%
X86050000Y-75500000D03*
%TD*%
D19*
%TO.P,U2,1*%
%TO.N,KEY_COL0*%
X54150000Y-64745000D03*
%TO.P,U2,2*%
%TO.N,KEY_COL1*%
X54150000Y-66015000D03*
%TO.P,U2,3*%
%TO.N,KEY_COL2*%
X54150000Y-67285000D03*
%TO.P,U2,4*%
%TO.N,KEY_COL3*%
X54150000Y-68555000D03*
%TO.P,U2,5*%
%TO.N,KEY_ROW0*%
X54150000Y-69825000D03*
%TO.P,U2,6*%
%TO.N,KEY_ROW1*%
X54150000Y-71095000D03*
%TO.P,U2,7*%
%TO.N,KEY_ROW2*%
X54150000Y-72365000D03*
%TO.P,U2,8*%
%TO.N,N/C*%
X54150000Y-73635000D03*
%TO.P,U2,9*%
%TO.N,3V3*%
X54150000Y-74905000D03*
%TO.P,U2,10*%
%TO.N,GND*%
X54150000Y-76175000D03*
%TO.P,U2,11*%
%TO.N,N/C*%
X54150000Y-77445000D03*
%TO.P,U2,12*%
%TO.N,I2C_SCL*%
X54150000Y-78715000D03*
%TO.P,U2,13*%
%TO.N,I2C_SDA*%
X54150000Y-79985000D03*
%TO.P,U2,14*%
%TO.N,N/C*%
X54150000Y-81255000D03*
%TO.P,U2,15*%
%TO.N,GND*%
X44850000Y-81255000D03*
%TO.P,U2,16*%
X44850000Y-79985000D03*
%TO.P,U2,17*%
X44850000Y-78715000D03*
%TO.P,U2,18*%
%TO.N,MCP_RESET*%
X44850000Y-77445000D03*
%TO.P,U2,19*%
%TO.N,N/C*%
X44850000Y-76175000D03*
%TO.P,U2,20*%
X44850000Y-74905000D03*
%TO.P,U2,21*%
X44850000Y-73635000D03*
%TO.P,U2,22*%
X44850000Y-72365000D03*
%TO.P,U2,23*%
X44850000Y-71095000D03*
%TO.P,U2,24*%
X44850000Y-69825000D03*
%TO.P,U2,25*%
X44850000Y-68555000D03*
%TO.P,U2,26*%
X44850000Y-67285000D03*
%TO.P,U2,27*%
X44850000Y-66015000D03*
%TO.P,U2,28*%
X44850000Y-64745000D03*
%TD*%
D13*
%TO.P,R4,1*%
%TO.N,3V3*%
X59000000Y-63700000D03*
%TO.P,R4,2*%
%TO.N,I2C_SDA*%
X59000000Y-65300000D03*
%TD*%
D14*
%TO.P,D10,1*%
%TO.N,KINT10*%
X40475000Y-8420000D03*
%TO.P,D10,2*%
%TO.N,KEY_ROW2*%
X48095000Y-8420000D03*
%TD*%
%TO.P,D04,1*%
%TO.N,KINT04*%
X78575000Y-46520000D03*
%TO.P,D04,2*%
%TO.N,KEY_ROW0*%
X86195000Y-46520000D03*
%TD*%
D13*
%TO.P,C1,1*%
%TO.N,3V3*%
X56300000Y-74700000D03*
%TO.P,C1,2*%
%TO.N,GND*%
X56300000Y-76300000D03*
%TD*%
D20*
%TO.P,U4,1*%
%TO.N,BOOST_FB*%
X82750000Y-71500000D03*
%TO.P,U4,2*%
%TO.N,BAT_RAW*%
X82750000Y-72000000D03*
%TO.P,U4,3*%
X82750000Y-72500000D03*
%TO.P,U4,4*%
%TO.N,GND*%
X81250000Y-72500000D03*
%TO.P,U4,5*%
%TO.N,BOOST_SW*%
X81250000Y-72000000D03*
%TO.P,U4,6*%
%TO.N,BOOST_5V*%
X81250000Y-71500000D03*
%TD*%
D21*
%TO.P,D13,1*%
%TO.N,USB_5V*%
X80500000Y-78000000D03*
%TO.P,D13,2*%
%TO.N,BOOST_5V*%
X76500000Y-78000000D03*
%TD*%
D13*
%TO.P,R7,1*%
%TO.N,BOOST_FB*%
X86700000Y-82000000D03*
%TO.P,R7,2*%
%TO.N,GND*%
X88300000Y-82000000D03*
%TD*%
D19*
%TO.P,U3,1*%
%TO.N,N/C*%
X68650000Y-68555000D03*
%TO.P,U3,2*%
%TO.N,3V3*%
X68650000Y-69825000D03*
%TO.P,U3,3*%
%TO.N,RTC_INT*%
X68650000Y-71095000D03*
%TO.P,U3,4*%
%TO.N,N/C*%
X68650000Y-72365000D03*
%TO.P,U3,5*%
%TO.N,GND*%
X68650000Y-73635000D03*
%TO.P,U3,6*%
X68650000Y-74905000D03*
%TO.P,U3,7*%
X68650000Y-76175000D03*
%TO.P,U3,8*%
X68650000Y-77445000D03*
%TO.P,U3,9*%
X59350000Y-77445000D03*
%TO.P,U3,10*%
X59350000Y-76175000D03*
%TO.P,U3,11*%
X59350000Y-74905000D03*
%TO.P,U3,12*%
X59350000Y-73635000D03*
%TO.P,U3,13*%
X59350000Y-72365000D03*
%TO.P,U3,14*%
X59350000Y-71095000D03*
%TO.P,U3,15*%
%TO.N,I2C_SDA*%
X59350000Y-69825000D03*
%TO.P,U3,16*%
%TO.N,I2C_SCL*%
X59350000Y-68555000D03*
%TD*%
D22*
%TO.P,J3,1*%
%TO.N,BAT_RAW*%
X76000000Y-86000000D03*
D23*
%TO.P,J3,2*%
%TO.N,GND*%
X74000000Y-86000000D03*
%TD*%
D14*
%TO.P,D08,1*%
%TO.N,KINT08*%
X78575000Y-27470000D03*
%TO.P,D08,2*%
%TO.N,KEY_ROW1*%
X86195000Y-27470000D03*
%TD*%
%TO.P,D12,1*%
%TO.N,KINT12*%
X78575000Y-8420000D03*
%TO.P,D12,2*%
%TO.N,KEY_ROW2*%
X86195000Y-8420000D03*
%TD*%
%TO.P,BZ1,1*%
%TO.N,3V3*%
X28200000Y-74000000D03*
%TO.P,BZ1,2*%
%TO.N,BUZZER*%
X35800000Y-74000000D03*
%TD*%
%TO.P,D06,1*%
%TO.N,KINT06*%
X40475000Y-27470000D03*
%TO.P,D06,2*%
%TO.N,KEY_ROW1*%
X48095000Y-27470000D03*
%TD*%
D24*
%TO.N,GND*%
X26511300Y-76877700D03*
%TO.N,USB_5V*%
X26505800Y-80352000D03*
X79136000Y-76636000D03*
%TO.N,BAT_RAW*%
X85370800Y-71151900D03*
X83692700Y-72412100D03*
%TO.N,BOOST_SW*%
X80588300Y-70006300D03*
X85308700Y-70006300D03*
%TO.N,TFT_SCLK*%
X11274900Y-76493700D03*
%TO.N,TFT_MOSI*%
X11274900Y-73526100D03*
%TO.N,TFT_RST*%
X11663100Y-72589500D03*
%TO.N,TFT_DC*%
X11663100Y-70095000D03*
%TO.N,TFT_CS*%
X11663100Y-65810600D03*
%TO.N,TFT_BL*%
X12184000Y-65158900D03*
%TO.N,I2C_SDA*%
X35050000Y-69733600D03*
X55537000Y-79316000D03*
X56441500Y-73306900D03*
%TO.N,I2C_SCL*%
X61057800Y-68555000D03*
X52666300Y-78231200D03*
%TO.N,BUZZER_CTL*%
X26499300Y-70120700D03*
%TO.N,BUZZER_SW*%
X33587300Y-66287300D03*
%TO.N,RTC_INT*%
X56796100Y-66656800D03*
X67296800Y-70424400D03*
%TO.N,KEY_COL0*%
X51986000Y-35034700D03*
%TO.N,KEY_COL1*%
X40770800Y-60550100D03*
X52614500Y-60550100D03*
%TO.N,KEY_COL3*%
X55511100Y-67886000D03*
%TO.N,KEY_ROW0*%
X43207000Y-62061300D03*
X52761800Y-69156000D03*
X32125500Y-45051800D03*
%TO.N,KEY_ROW1*%
X65939600Y-64762400D03*
X52602100Y-71060500D03*
%TD*%
D25*
%TO.N,GND*%
X48205600Y-78046000D02*
X45519000Y-78046000D01*
D26*
X88300000Y-82000000D02*
X88300000Y-79750000D01*
X88767900Y-71752600D02*
X87823400Y-71752600D01*
X50076600Y-76175000D02*
X48205600Y-78046000D01*
D25*
X70500000Y-72966000D02*
X69319000Y-72966000D01*
D26*
X54150000Y-76175000D02*
X50076600Y-76175000D01*
X91663100Y-64664200D02*
X89491700Y-66835600D01*
X68650000Y-76810000D02*
X68650000Y-77445000D01*
X56300000Y-76300000D02*
X56175000Y-76175000D01*
X41437500Y-77950000D02*
X41437500Y-78046000D01*
D25*
X44181000Y-78046000D02*
X44850000Y-78715000D01*
D26*
X59350000Y-73635000D02*
X59350000Y-72365000D01*
X26511300Y-76877700D02*
X24822300Y-76877700D01*
X79300000Y-72000000D02*
X79770700Y-72470700D01*
X91663100Y-24027000D02*
X91663100Y-64664200D01*
X59350000Y-76175000D02*
X59350000Y-76810000D01*
X39000000Y-66540000D02*
X39000000Y-67691900D01*
X79770700Y-72470700D02*
X79779900Y-72470700D01*
X68650000Y-73635000D02*
X68650000Y-74905000D01*
X59350000Y-76810000D02*
X59350000Y-77445000D01*
X59350000Y-73635000D02*
X59350000Y-74905000D01*
D25*
X45519000Y-78046000D02*
X44850000Y-78715000D01*
D26*
X70500000Y-71600000D02*
X74450000Y-71600000D01*
X59350000Y-72365000D02*
X59350000Y-71095000D01*
D25*
X41437500Y-78046000D02*
X43440900Y-78046000D01*
D26*
X82174600Y-69390400D02*
X86180100Y-73395900D01*
X44850000Y-79985000D02*
X44850000Y-81255000D01*
X56300000Y-76300000D02*
X59225000Y-76300000D01*
X79300000Y-70356400D02*
X80266000Y-69390400D01*
X59225000Y-76300000D02*
X59350000Y-76175000D01*
X88300000Y-79750000D02*
X89050000Y-79000000D01*
X68650000Y-76175000D02*
X68650000Y-76810000D01*
X86050000Y-76000000D02*
X86050000Y-75500000D01*
X90788000Y-23151900D02*
X91663100Y-24027000D01*
X74000000Y-82795000D02*
X68650000Y-77445000D01*
X89050000Y-79000000D02*
X86050000Y-76000000D01*
X89491700Y-71028800D02*
X88767900Y-71752600D01*
D25*
X43524000Y-76622400D02*
X43524000Y-76470200D01*
D26*
X79214400Y-66835600D02*
X77550000Y-68500000D01*
X59350000Y-76810000D02*
X68650000Y-76810000D01*
X89491700Y-66835600D02*
X79214400Y-66835600D01*
X89491700Y-66835600D02*
X89491700Y-71028800D01*
X44850000Y-78715000D02*
X44850000Y-79985000D01*
D25*
X43440900Y-78046000D02*
X44181000Y-78046000D01*
D26*
X43440900Y-78046000D02*
X43440900Y-76705500D01*
X90500000Y-23151900D02*
X90788000Y-23151900D01*
X74000000Y-86000000D02*
X74000000Y-82795000D01*
X43323700Y-71747100D02*
X39268500Y-67691900D01*
X43440900Y-76705500D02*
X43524000Y-76622400D01*
X70500000Y-71600000D02*
X70500000Y-72966000D01*
D25*
X81220700Y-72470700D02*
X81250000Y-72500000D01*
D26*
X56175000Y-76175000D02*
X54150000Y-76175000D01*
X79300000Y-72000000D02*
X79300000Y-70356400D01*
D25*
X79779900Y-72470700D02*
X81220700Y-72470700D01*
D26*
X68650000Y-74905000D02*
X68650000Y-76175000D01*
D25*
X43524000Y-76470200D02*
X43323700Y-76269900D01*
D26*
X24822300Y-76877700D02*
X24620000Y-77080000D01*
X86050000Y-73526000D02*
X86180100Y-73395900D01*
X43323700Y-76269900D02*
X43323700Y-71747100D01*
D25*
X69319000Y-72966000D02*
X68650000Y-73635000D01*
D26*
X86050000Y-75500000D02*
X86050000Y-73526000D01*
X59350000Y-74905000D02*
X59350000Y-76175000D01*
X74450000Y-71600000D02*
X77550000Y-68500000D01*
X87823400Y-71752600D02*
X86180100Y-73395900D01*
X39268500Y-67691900D02*
X39000000Y-67691900D01*
X80266000Y-69390400D02*
X82174600Y-69390400D01*
X90500000Y-22000000D02*
X90500000Y-23151900D01*
%TO.N,3V3*%
X56041400Y-72253800D02*
X55836000Y-72459200D01*
X70500000Y-70000000D02*
X68825000Y-70000000D01*
X57621500Y-67886300D02*
X57621500Y-67986300D01*
X51814100Y-64514100D02*
X51000000Y-63700000D01*
X51000000Y-63700000D02*
X40451900Y-63700000D01*
X25160000Y-74000000D02*
X24620000Y-74540000D01*
X40451900Y-63700000D02*
X40151900Y-64000000D01*
X68825000Y-70000000D02*
X68650000Y-69825000D01*
X55836000Y-72459200D02*
X55836000Y-74236000D01*
D27*
X58021900Y-67295100D02*
X58021900Y-67485900D01*
D26*
X67288100Y-69156000D02*
X67288100Y-66988100D01*
X56300000Y-74700000D02*
X54355000Y-74700000D01*
X67288100Y-66988100D02*
X64000000Y-63700000D01*
X90500000Y-24540000D02*
X90500000Y-25691900D01*
X57800000Y-65500000D02*
X57800000Y-64900000D01*
D27*
X58021900Y-67485900D02*
X57621500Y-67886300D01*
D26*
X28200000Y-74000000D02*
X25160000Y-74000000D01*
X39000000Y-64000000D02*
X40151900Y-64000000D01*
X57800000Y-65500000D02*
X58021900Y-65721900D01*
D25*
X52824000Y-74704700D02*
X52824000Y-73297600D01*
D26*
X90500000Y-25691900D02*
X90211900Y-25691900D01*
D25*
X52824000Y-73297600D02*
X52202000Y-72675600D01*
X57621500Y-67986300D02*
X57621500Y-70673700D01*
X67981000Y-69156000D02*
X68650000Y-69825000D01*
D26*
X90211900Y-25691900D02*
X89348100Y-26555700D01*
X54150000Y-74905000D02*
X53024300Y-74905000D01*
X54355000Y-74700000D02*
X54150000Y-74905000D01*
D25*
X57621500Y-70673700D02*
X56041400Y-72253800D01*
D26*
X51814100Y-72287700D02*
X51814100Y-64514100D01*
X59000000Y-63700000D02*
X64000000Y-63700000D01*
X52202000Y-72675600D02*
X51814100Y-72287700D01*
D25*
X67288100Y-69156000D02*
X67981000Y-69156000D01*
D26*
X53024300Y-74905000D02*
X52824000Y-74704700D01*
X55836000Y-74236000D02*
X56300000Y-74700000D01*
X89348100Y-51151900D02*
X70500000Y-70000000D01*
X89348100Y-26555700D02*
X89348100Y-51151900D01*
X57800000Y-64900000D02*
X59000000Y-63700000D01*
X58021900Y-65721900D02*
X58021900Y-67295100D01*
%TO.N,USB_5V*%
X24620000Y-79620000D02*
X25352000Y-80352000D01*
X25352000Y-80352000D02*
X26505800Y-80352000D01*
X79136000Y-76636000D02*
X80500000Y-78000000D01*
%TO.N,BAT_RAW*%
X77700000Y-70250000D02*
X77700000Y-72000000D01*
X83692700Y-72412100D02*
X83280600Y-72000000D01*
X83280600Y-72000000D02*
X82750000Y-72000000D01*
X82718900Y-68500000D02*
X85370800Y-71151900D01*
X82750000Y-72000000D02*
X82750000Y-72500000D01*
X74904800Y-84904800D02*
X74904800Y-74795200D01*
X74904800Y-74795200D02*
X77700000Y-72000000D01*
X79450000Y-68500000D02*
X82718900Y-68500000D01*
X79450000Y-68500000D02*
X77700000Y-70250000D01*
X76000000Y-86000000D02*
X74904800Y-84904800D01*
X85370800Y-71151900D02*
X88685000Y-71151900D01*
X88685000Y-69000000D02*
X88685000Y-71151900D01*
D25*
%TO.N,BOOST_SW*%
X80588300Y-71970700D02*
X81220700Y-71970700D01*
D26*
X85308700Y-70006300D02*
X86315000Y-69000000D01*
D25*
X81220700Y-71970700D02*
X81250000Y-72000000D01*
D26*
X80588300Y-71970700D02*
X80588300Y-70006300D01*
D25*
%TO.N,BOOST_5V*%
X81954200Y-71529300D02*
X81279300Y-71529300D01*
D26*
X84010200Y-82810200D02*
X88756600Y-82810200D01*
X90950000Y-78500000D02*
X90950000Y-79000000D01*
X88756600Y-82810200D02*
X90950000Y-80616800D01*
X90950000Y-80616800D02*
X90950000Y-79000000D01*
X87950000Y-75500000D02*
X90950000Y-78500000D01*
X81954200Y-71867300D02*
X81954200Y-71529300D01*
X77711500Y-79211500D02*
X82051100Y-79211500D01*
X83200000Y-82000000D02*
X84010200Y-82810200D01*
D25*
X81279300Y-71529300D02*
X81250000Y-71500000D01*
D26*
X82000000Y-71913100D02*
X81954200Y-71867300D01*
D25*
X82051100Y-79211500D02*
X82051100Y-71964200D01*
D26*
X82051100Y-79211500D02*
X83200000Y-80360400D01*
D25*
X82051100Y-71964200D02*
X82000000Y-71913100D01*
D26*
X83200000Y-80360400D02*
X83200000Y-82000000D01*
X76500000Y-78000000D02*
X77711500Y-79211500D01*
%TO.N,BOOST_FB*%
X86700000Y-82000000D02*
X84800000Y-82000000D01*
X83631900Y-71500000D02*
X82750000Y-71500000D01*
X84800000Y-82000000D02*
X84800000Y-72668100D01*
X84800000Y-72668100D02*
X83631900Y-71500000D01*
%TO.N,TFT_SCLK*%
X11274900Y-77725100D02*
X11274900Y-76493700D01*
X9380000Y-79620000D02*
X11274900Y-77725100D01*
%TO.N,TFT_MOSI*%
X9380000Y-77080000D02*
X11274900Y-75185100D01*
X11274900Y-75185100D02*
X11274900Y-73526100D01*
%TO.N,TFT_RST*%
X9380000Y-74540000D02*
X11330500Y-72589500D01*
X11330500Y-72589500D02*
X11663100Y-72589500D01*
%TO.N,TFT_DC*%
X9380000Y-72000000D02*
X11285000Y-70095000D01*
X11285000Y-70095000D02*
X11663100Y-70095000D01*
%TO.N,TFT_CS*%
X11663100Y-67176900D02*
X11663100Y-65810600D01*
X9380000Y-69460000D02*
X11663100Y-67176900D01*
%TO.N,TFT_BL*%
X9380000Y-66920000D02*
X11141100Y-65158900D01*
X11141100Y-65158900D02*
X12184000Y-65158900D01*
%TO.N,I2C_SDA*%
X56441500Y-73306900D02*
X58021900Y-71726500D01*
D25*
X54819000Y-79316000D02*
X54150000Y-79985000D01*
D26*
X24620000Y-64380000D02*
X29973600Y-69733600D01*
D25*
X55537000Y-79316000D02*
X54819000Y-79316000D01*
D26*
X58021900Y-68198000D02*
X59000000Y-67219900D01*
D25*
X58021900Y-69825000D02*
X59350000Y-69825000D01*
D26*
X59000000Y-67219900D02*
X59000000Y-65300000D01*
X58021900Y-69825000D02*
X58021900Y-68198000D01*
X58021900Y-71726500D02*
X58021900Y-69825000D01*
X29973600Y-69733600D02*
X35050000Y-69733600D01*
%TO.N,I2C_SCL*%
X61057800Y-68555000D02*
X59350000Y-68555000D01*
X61057800Y-68242200D02*
X61057800Y-68555000D01*
X39000000Y-71620000D02*
X39000000Y-70468100D01*
X17761800Y-63077700D02*
X16459500Y-64380000D01*
D25*
X17761800Y-63077700D02*
X24368500Y-63077700D01*
X24368500Y-63077700D02*
X24956300Y-62489900D01*
D26*
X24956300Y-62489900D02*
X30725000Y-62489900D01*
X64000000Y-65300000D02*
X61057800Y-68242200D01*
D25*
X54150000Y-78715000D02*
X53150100Y-78715000D01*
D26*
X38703200Y-70468100D02*
X39000000Y-70468100D01*
X30725000Y-62489900D02*
X38703200Y-70468100D01*
X16459500Y-64380000D02*
X9380000Y-64380000D01*
D25*
X53150100Y-78715000D02*
X52666300Y-78231200D01*
D26*
%TO.N,BUZZER_CTL*%
X26499300Y-70120700D02*
X24620000Y-72000000D01*
%TO.N,BUZZER_SW*%
X41437500Y-76050000D02*
X35651900Y-70264400D01*
X35651900Y-70264400D02*
X35651900Y-68351900D01*
X35651900Y-68351900D02*
X33587300Y-66287300D01*
%TO.N,BUZZER*%
X35800000Y-74000000D02*
X36562500Y-74000000D01*
X36562500Y-74000000D02*
X39562500Y-77000000D01*
%TO.N,RTC_INT*%
X56200000Y-66060700D02*
X56796100Y-66656800D01*
X56200000Y-65500000D02*
X56200000Y-66060700D01*
D25*
X67979400Y-70424400D02*
X67296800Y-70424400D01*
X68650000Y-71095000D02*
X67979400Y-70424400D01*
%TO.N,MCP_RESET*%
X46203200Y-76776000D02*
X45519000Y-76776000D01*
X45519000Y-76776000D02*
X44850000Y-77445000D01*
D26*
X51000000Y-71979200D02*
X46203200Y-76776000D01*
X51000000Y-65300000D02*
X51000000Y-71979200D01*
%TO.N,KEY_COL0*%
X12823900Y-11168900D02*
X12615000Y-10960000D01*
X57100300Y-61794700D02*
X54150000Y-64745000D01*
X12771900Y-30166900D02*
X12771900Y-33214500D01*
X12615000Y-30010000D02*
X12823900Y-29801100D01*
X12211300Y-48656300D02*
X12615000Y-49060000D01*
X12615000Y-30010000D02*
X12771900Y-30166900D01*
X12771900Y-33214500D02*
X12570100Y-33416300D01*
X51986000Y-35034700D02*
X51986000Y-44316500D01*
X12211300Y-33775100D02*
X12211300Y-48656300D01*
X12823900Y-29801100D02*
X12823900Y-11168900D01*
X51986000Y-44316500D02*
X57100300Y-49430800D01*
X57100300Y-49430800D02*
X57100300Y-61794700D01*
D25*
X12570100Y-33416300D02*
X12211300Y-33775100D01*
D26*
%TO.N,KEY_COL1*%
X31665000Y-49060000D02*
X32344200Y-49739200D01*
X31665000Y-10960000D02*
X31834800Y-11129800D01*
X32344200Y-49739200D02*
X32344200Y-52123500D01*
D25*
X53745300Y-66015000D02*
X52663700Y-64933400D01*
D26*
X31523600Y-44802600D02*
X31523600Y-48918600D01*
X31523600Y-48918600D02*
X31665000Y-49060000D01*
X32344200Y-52123500D02*
X40770800Y-60550100D01*
X31834800Y-11129800D02*
X31834800Y-29840200D01*
D25*
X52663700Y-60599300D02*
X52614500Y-60550100D01*
D26*
X31850700Y-30195700D02*
X31850700Y-44475500D01*
D25*
X52663700Y-64933400D02*
X52663700Y-60599300D01*
X54150000Y-66015000D02*
X53745300Y-66015000D01*
D26*
X31850700Y-44475500D02*
X31523600Y-44802600D01*
X31834800Y-29840200D02*
X31665000Y-30010000D01*
X31665000Y-30010000D02*
X31850700Y-30195700D01*
%TO.N,KEY_COL2*%
X51884900Y-50229900D02*
X50715000Y-49060000D01*
X50884800Y-11129800D02*
X50884800Y-29840200D01*
X50871900Y-30166900D02*
X50715000Y-30010000D01*
X50715000Y-10960000D02*
X50884800Y-11129800D01*
X50715000Y-49060000D02*
X50871900Y-48903100D01*
D25*
X53481000Y-66616000D02*
X54150000Y-67285000D01*
X52286800Y-66616000D02*
X53481000Y-66616000D01*
D26*
X52286800Y-63977400D02*
X51884900Y-63575500D01*
X52286800Y-66616000D02*
X52286800Y-63977400D01*
X50884800Y-29840200D02*
X50715000Y-30010000D01*
X51884900Y-63575500D02*
X51884900Y-50229900D01*
X50871900Y-48903100D02*
X50871900Y-30166900D01*
%TO.N,KEY_COL3*%
X69765000Y-30010000D02*
X69934800Y-30179800D01*
X69934800Y-11129800D02*
X69934800Y-29840200D01*
D25*
X55511100Y-67886000D02*
X54819000Y-67886000D01*
D26*
X69934800Y-48890200D02*
X69765000Y-49060000D01*
D25*
X54819000Y-67886000D02*
X54150000Y-68555000D01*
D26*
X69934800Y-29840200D02*
X69765000Y-30010000D01*
X69934800Y-30179800D02*
X69934800Y-48890200D01*
X69765000Y-10960000D02*
X69934800Y-11129800D01*
D25*
%TO.N,KEY_ROW0*%
X53481000Y-69156000D02*
X54150000Y-69825000D01*
D26*
X32125500Y-45051800D02*
X41738800Y-45051800D01*
X41738800Y-45051800D02*
X43207000Y-46520000D01*
X43207000Y-46520000D02*
X48095000Y-46520000D01*
X43207000Y-46520000D02*
X43207000Y-62061300D01*
D25*
X52761800Y-69156000D02*
X53481000Y-69156000D01*
D26*
%TO.N,KEY_ROW1*%
X54115500Y-71060500D02*
X54150000Y-71095000D01*
X65939600Y-28675400D02*
X65939600Y-64762400D01*
X52602100Y-71060500D02*
X54115500Y-71060500D01*
X67145000Y-27470000D02*
X65939600Y-28675400D01*
%TO.N,KEY_ROW2*%
X57423600Y-66370000D02*
X57423600Y-67483500D01*
X56361100Y-68546000D02*
X56361100Y-70770500D01*
X56361100Y-70770500D02*
X55435600Y-71696000D01*
D25*
X54819000Y-71696000D02*
X54150000Y-72365000D01*
D26*
X57047200Y-64151500D02*
X57047200Y-65993600D01*
D25*
X61083900Y-51346200D02*
X61083900Y-51853700D01*
D26*
X61083900Y-51853700D02*
X61083900Y-60114800D01*
X61083900Y-14481100D02*
X61083900Y-51346200D01*
X61083900Y-60114800D02*
X57047200Y-64151500D01*
X57423600Y-67483500D02*
X56361100Y-68546000D01*
D25*
X55435600Y-71696000D02*
X54819000Y-71696000D01*
D26*
X67145000Y-8420000D02*
X61083900Y-14481100D01*
X57047200Y-65993600D02*
X57423600Y-66370000D01*
D28*
%TO.N,KINT01*%
X18965000Y-46520000D02*
X21425000Y-46520000D01*
%TO.N,KINT02*%
X38015000Y-46520000D02*
X40475000Y-46520000D01*
%TO.N,KINT03*%
X57065000Y-46520000D02*
X59525000Y-46520000D01*
%TO.N,KINT04*%
X76115000Y-46520000D02*
X78575000Y-46520000D01*
%TO.N,KINT05*%
X18965000Y-27470000D02*
X21425000Y-27470000D01*
%TO.N,KINT06*%
X38015000Y-27470000D02*
X40475000Y-27470000D01*
%TO.N,KINT07*%
X57065000Y-27470000D02*
X59525000Y-27470000D01*
%TO.N,KINT08*%
X76115000Y-27470000D02*
X78575000Y-27470000D01*
%TO.N,KINT09*%
X18965000Y-8420000D02*
X21425000Y-8420000D01*
%TO.N,KINT10*%
X38015000Y-8420000D02*
X40475000Y-8420000D01*
%TO.N,KINT11*%
X57065000Y-8420000D02*
X59525000Y-8420000D01*
%TO.N,KINT12*%
X76115000Y-8420000D02*
X78575000Y-8420000D01*
%TD*%
M02*
