%TF.GenerationSoftware,KiCad,Pcbnew,7.0.11+dfsg-1build4*%
%TF.CreationDate,2026-10-06T19:10:33+00:00*%
%TF.ProjectId,DawnKey,4461776e-4b65-4792-9e6b-696361645f70,rev?*%
%TF.SameCoordinates,Original*%
%TF.FileFunction,Soldermask,Top*%
%TF.FilePolarity,Negative*%
%FSLAX46Y46*%
G04 Gerber Fmt 4.6, Leading zero omitted, Abs format (unit mm)*
G04 Created by KiCad (PCBNEW 7.0.11+dfsg-1build4) date 2026-10-06 19:10:33*
%MOMM*%
%LPD*%
G01*
G04 APERTURE LIST*
G04 Aperture macros list*
%AMRoundRect*
0 Rectangle with rounded corners*
0 $1 Rounding radius*
0 $2 $3 $4 $5 $6 $7 $8 $9 X,Y pos of 4 corners*
0 Add a 4 corners polygon primitive as box body*
4,1,4,$2,$3,$4,$5,$6,$7,$8,$9,$2,$3,0*
0 Add four circle primitives for the rounded corners*
1,1,$1+$1,$2,$3*
1,1,$1+$1,$4,$5*
1,1,$1+$1,$6,$7*
1,1,$1+$1,$8,$9*
0 Add four rect primitives between the rounded corners*
20,1,$1+$1,$2,$3,$4,$5,0*
20,1,$1+$1,$4,$5,$6,$7,0*
20,1,$1+$1,$6,$7,$8,$9,0*
20,1,$1+$1,$8,$9,$2,$3,0*%
G04 Aperture macros list end*
%ADD10C,1.750000*%
%ADD11C,3.987800*%
%ADD12C,2.300000*%
%ADD13C,3.200000*%
%ADD14RoundRect,0.225000X-0.225000X-0.275000X0.225000X-0.275000X0.225000X0.275000X-0.225000X0.275000X0*%
%ADD15R,1.700000X1.700000*%
%ADD16O,1.700000X1.700000*%
%ADD17C,1.800000*%
%ADD18RoundRect,0.250000X0.350000X0.625000X-0.350000X0.625000X-0.350000X-0.625000X0.350000X-0.625000X0*%
%ADD19O,1.200000X1.750000*%
G04 APERTURE END LIST*
D10*
%TO.C,SW02*%
X30395000Y-51600000D03*
D11*
X35475000Y-51600000D03*
D10*
X40555000Y-51600000D03*
D12*
X31665000Y-49060000D03*
X38015000Y-46520000D03*
%TD*%
D10*
%TO.C,SW04*%
X68495000Y-51600000D03*
D11*
X73575000Y-51600000D03*
D10*
X78655000Y-51600000D03*
D12*
X69765000Y-49060000D03*
X76115000Y-46520000D03*
%TD*%
D13*
%TO.C,H4*%
X89500000Y-85500000D03*
%TD*%
D10*
%TO.C,SW06*%
X30395000Y-32549999D03*
D11*
X35475000Y-32549999D03*
D10*
X40555000Y-32549999D03*
D12*
X31665000Y-30009999D03*
X38015000Y-27470000D03*
%TD*%
D10*
%TO.C,SW09*%
X11345000Y-13500000D03*
D11*
X16425000Y-13500000D03*
D10*
X21505000Y-13500000D03*
D12*
X12615000Y-10960000D03*
X18965000Y-8420000D03*
%TD*%
D10*
%TO.C,SW07*%
X49445000Y-32549999D03*
D11*
X54525000Y-32549999D03*
D10*
X59605000Y-32549999D03*
D12*
X50715000Y-30009999D03*
X57065000Y-27470000D03*
%TD*%
D10*
%TO.C,SW03*%
X49445000Y-51600000D03*
D11*
X54525000Y-51600000D03*
D10*
X59605000Y-51600000D03*
D12*
X50715000Y-49060000D03*
X57065000Y-46520000D03*
%TD*%
D10*
%TO.C,SW08*%
X68495000Y-32549999D03*
D11*
X73575000Y-32549999D03*
D10*
X78655000Y-32549999D03*
D12*
X69765000Y-30009999D03*
X76115000Y-27470000D03*
%TD*%
D10*
%TO.C,SW01*%
X11345000Y-51600000D03*
D11*
X16425000Y-51600000D03*
D10*
X21505000Y-51600000D03*
D12*
X12615000Y-49060000D03*
X18965000Y-46520000D03*
%TD*%
D10*
%TO.C,SW12*%
X68495000Y-13500000D03*
D11*
X73575000Y-13500000D03*
D10*
X78655000Y-13500000D03*
D12*
X69765000Y-10960000D03*
X76115000Y-8420000D03*
%TD*%
D13*
%TO.C,H1*%
X4500000Y-4500000D03*
%TD*%
D10*
%TO.C,SW05*%
X11345000Y-32549999D03*
D11*
X16425000Y-32549999D03*
D10*
X21505000Y-32549999D03*
D12*
X12615000Y-30009999D03*
X18965000Y-27470000D03*
%TD*%
D14*
%TO.C,R1*%
X31200000Y-65500000D03*
X32799999Y-65500000D03*
%TD*%
D13*
%TO.C,H2*%
X89500000Y-4500000D03*
%TD*%
D15*
%TO.C,J1*%
X90500000Y-22000000D03*
D16*
X90500000Y-24540000D03*
X90500000Y-27080000D03*
X90500000Y-29620000D03*
X90500000Y-32160000D03*
X90500000Y-34700000D03*
X90500000Y-37240000D03*
X90500000Y-39780000D03*
%TD*%
D10*
%TO.C,SW11*%
X49445000Y-13500000D03*
D11*
X54525000Y-13500000D03*
D10*
X59605000Y-13500000D03*
D12*
X50715000Y-10960000D03*
X57065000Y-8420000D03*
%TD*%
D10*
%TO.C,SW10*%
X30395000Y-13500000D03*
D11*
X35475000Y-13500000D03*
D10*
X40555000Y-13500000D03*
D12*
X31665000Y-10960000D03*
X38015000Y-8420000D03*
%TD*%
D13*
%TO.C,H3*%
X4500000Y-85500000D03*
%TD*%
D15*
%TO.C,J2*%
X39000000Y-64000000D03*
D16*
X39000000Y-66540000D03*
X39000000Y-69080000D03*
X39000000Y-71620000D03*
%TD*%
D17*
%TO.C,D11*%
X59525000Y-8420000D03*
X67145000Y-8420000D03*
%TD*%
%TO.C,D03*%
X59525000Y-46520000D03*
X67145000Y-46520000D03*
%TD*%
%TO.C,D01*%
X21425000Y-46520000D03*
X29045000Y-46520000D03*
%TD*%
%TO.C,D02*%
X40475000Y-46520000D03*
X48095000Y-46520000D03*
%TD*%
%TO.C,D07*%
X59525000Y-27470000D03*
X67145000Y-27470000D03*
%TD*%
%TO.C,D05*%
X21425000Y-27470000D03*
X29045000Y-27470000D03*
%TD*%
%TO.C,D09*%
X21425000Y-8420000D03*
X29045000Y-8420000D03*
%TD*%
%TO.C,D10*%
X40475000Y-8420000D03*
X48095000Y-8420000D03*
%TD*%
%TO.C,D04*%
X78575000Y-46520000D03*
X86195000Y-46520000D03*
%TD*%
D18*
%TO.C,J3*%
X76000000Y-86000000D03*
D19*
X74000000Y-86000000D03*
%TD*%
D17*
%TO.C,D08*%
X78575000Y-27470000D03*
X86195000Y-27470000D03*
%TD*%
%TO.C,D12*%
X78575000Y-8420000D03*
X86195000Y-8420000D03*
%TD*%
%TO.C,BZ1*%
X28200000Y-74000000D03*
X35800000Y-74000000D03*
%TD*%
%TO.C,D06*%
X40475000Y-27470000D03*
X48095000Y-27470000D03*
%TD*%
M02*
