ISO-10303-21;
HEADER;
FILE_DESCRIPTION(('FreeCAD Model'),'2;1');
FILE_NAME('Open CASCADE Shape Model','2026-10-06T10:00:33',('FreeCAD'),(
    'FreeCAD'),'Open CASCADE STEP processor 7.6','FreeCAD','Unknown');
FILE_SCHEMA(('AUTOMOTIVE_DESIGN { 1 0 10303 214 1 1 1 1 }'));
ENDSEC;
DATA;
#1 = APPLICATION_PROTOCOL_DEFINITION('international standard',
  'automotive_design',2000,#2);
#2 = APPLICATION_CONTEXT(
  'core data for automotive mechanical design processes');
#3 = SHAPE_DEFINITION_REPRESENTATION(#4,#10);
#4 = PRODUCT_DEFINITION_SHAPE('','',#5);
#5 = PRODUCT_DEFINITION('design','',#6,#9);
#6 = PRODUCT_DEFINITION_FORMATION('','',#7);
#7 = PRODUCT('Open CASCADE STEP translator 7.6 6',
  'Open CASCADE STEP translator 7.6 6','',(#8));
#8 = PRODUCT_CONTEXT('',#2,'mechanical');
#9 = PRODUCT_DEFINITION_CONTEXT('part definition',#2,'design');
#10 = SHAPE_REPRESENTATION('',(#11,#15,#255,#495),#735);
#11 = AXIS2_PLACEMENT_3D('',#12,#13,#14);
#12 = CARTESIAN_POINT('',(0.,0.,0.));
#13 = DIRECTION('',(0.,0.,1.));
#14 = DIRECTION('',(1.,0.,-0.));
#15 = SHELL_BASED_SURFACE_MODEL('',(#16));
#16 = CLOSED_SHELL('',(#17,#49,#72,#95,#118,#141,#164,#185,#201,#217,
    #228,#244));
#17 = ADVANCED_FACE('',(#18),#44,.T.);
#18 = FACE_BOUND('',#19,.T.);
#19 = EDGE_LOOP('',(#20,#30,#38));
#20 = ORIENTED_EDGE('',*,*,#21,.T.);
#21 = EDGE_CURVE('',#22,#24,#26,.T.);
#22 = VERTEX_POINT('',#23);
#23 = CARTESIAN_POINT('',(15.878700256348,76.785499572754,17.10000038147
    ));
#24 = VERTEX_POINT('',#25);
#25 = CARTESIAN_POINT('',(21.136699676514,86.674598693848,16.));
#26 = LINE('',#27,#28);
#27 = CARTESIAN_POINT('',(15.878700256348,76.785499572754,17.10000038147
    ));
#28 = VECTOR('',#29,1.);
#29 = DIRECTION('',(0.467214697593,0.878724413246,-9.774370525983E-02));
#30 = ORIENTED_EDGE('',*,*,#31,.T.);
#31 = EDGE_CURVE('',#24,#32,#34,.T.);
#32 = VERTEX_POINT('',#33);
#33 = CARTESIAN_POINT('',(21.136699676514,86.674598693848,17.10000038147
    ));
#34 = LINE('',#35,#36);
#35 = CARTESIAN_POINT('',(21.136699676514,86.674598693848,16.));
#36 = VECTOR('',#37,1.);
#37 = DIRECTION('',(0.,0.,1.));
#38 = ORIENTED_EDGE('',*,*,#39,.T.);
#39 = EDGE_CURVE('',#32,#22,#40,.T.);
#40 = LINE('',#41,#42);
#41 = CARTESIAN_POINT('',(21.136699676514,86.674598693848,17.10000038147
    ));
#42 = VECTOR('',#43,1.);
#43 = DIRECTION('',(-0.46946266334,-0.882952324721,0.));
#44 = PLANE('',#45);
#45 = AXIS2_PLACEMENT_3D('',#46,#47,#48);
#46 = CARTESIAN_POINT('',(18.630477633837,81.960965956567,
    16.811528267394));
#47 = DIRECTION('',(0.882952324721,-0.46946266334,6.701374670887E-16));
#48 = DIRECTION('',(0.46946266334,0.882952324721,4.930380657631E-32));
#49 = ADVANCED_FACE('',(#50),#67,.T.);
#50 = FACE_BOUND('',#51,.T.);
#51 = EDGE_LOOP('',(#52,#53,#61));
#52 = ORIENTED_EDGE('',*,*,#21,.F.);
#53 = ORIENTED_EDGE('',*,*,#54,.T.);
#54 = EDGE_CURVE('',#22,#55,#57,.T.);
#55 = VERTEX_POINT('',#56);
#56 = CARTESIAN_POINT('',(15.878700256348,76.785499572754,16.));
#57 = LINE('',#58,#59);
#58 = CARTESIAN_POINT('',(15.878700256348,76.785499572754,17.10000038147
    ));
#59 = VECTOR('',#60,1.);
#60 = DIRECTION('',(0.,0.,-1.));
#61 = ORIENTED_EDGE('',*,*,#62,.T.);
#62 = EDGE_CURVE('',#55,#24,#63,.T.);
#63 = LINE('',#64,#65);
#64 = CARTESIAN_POINT('',(15.878700256348,76.785499572754,16.));
#65 = VECTOR('',#66,1.);
#66 = DIRECTION('',(0.46946266334,0.882952324721,0.));
#67 = PLANE('',#68);
#68 = AXIS2_PLACEMENT_3D('',#69,#70,#71);
#69 = CARTESIAN_POINT('',(18.384922299024,81.499132310035,
    16.288472114076));
#70 = DIRECTION('',(0.882952324721,-0.46946266334,1.340274934177E-15));
#71 = DIRECTION('',(0.46946266334,0.882952324721,0.));
#72 = ADVANCED_FACE('',(#73),#90,.T.);
#73 = FACE_BOUND('',#74,.T.);
#74 = EDGE_LOOP('',(#75,#83,#84));
#75 = ORIENTED_EDGE('',*,*,#76,.T.);
#76 = EDGE_CURVE('',#77,#22,#79,.T.);
#77 = VERTEX_POINT('',#78);
#78 = CARTESIAN_POINT('',(20.121299743652,87.214500427246,17.10000038147
    ));
#79 = LINE('',#80,#81);
#80 = CARTESIAN_POINT('',(20.121299743652,87.214500427246,17.10000038147
    ));
#81 = VECTOR('',#82,1.);
#82 = DIRECTION('',(-0.376820538483,-0.926286284999,0.));
#83 = ORIENTED_EDGE('',*,*,#39,.F.);
#84 = ORIENTED_EDGE('',*,*,#85,.T.);
#85 = EDGE_CURVE('',#32,#77,#86,.T.);
#86 = LINE('',#87,#88);
#87 = CARTESIAN_POINT('',(21.136699676514,86.674598693848,17.10000038147
    ));
#88 = VECTOR('',#89,1.);
#89 = DIRECTION('',(-0.882946146674,0.469474282654,0.));
#90 = PLANE('',#91);
#91 = AXIS2_PLACEMENT_3D('',#92,#93,#94);
#92 = CARTESIAN_POINT('',(18.368912166276,82.11278917963,17.10000038147)
  );
#93 = DIRECTION('',(3.996988368061E-29,-1.999647367775E-29,1.));
#94 = DIRECTION('',(1.,0.,-3.996988368061E-29));
#95 = ADVANCED_FACE('',(#96),#113,.T.);
#96 = FACE_BOUND('',#97,.T.);
#97 = EDGE_LOOP('',(#98,#99,#107));
#98 = ORIENTED_EDGE('',*,*,#76,.F.);
#99 = ORIENTED_EDGE('',*,*,#100,.T.);
#100 = EDGE_CURVE('',#77,#101,#103,.T.);
#101 = VERTEX_POINT('',#102);
#102 = CARTESIAN_POINT('',(14.863300323486,77.325401306152,
    17.10000038147));
#103 = LINE('',#104,#105);
#104 = CARTESIAN_POINT('',(20.121299743652,87.214500427246,
    17.10000038147));
#105 = VECTOR('',#106,1.);
#106 = DIRECTION('',(-0.46946266334,-0.882952324721,0.));
#107 = ORIENTED_EDGE('',*,*,#108,.T.);
#108 = EDGE_CURVE('',#101,#22,#109,.T.);
#109 = LINE('',#110,#111);
#110 = CARTESIAN_POINT('',(14.863300323486,77.325401306152,
    17.10000038147));
#111 = VECTOR('',#112,1.);
#112 = DIRECTION('',(0.882946146674,-0.469474282654,0.));
#113 = PLANE('',#114);
#114 = AXIS2_PLACEMENT_3D('',#115,#116,#117);
#115 = CARTESIAN_POINT('',(17.631087833724,81.88721082037,17.10000038147
    ));
#116 = DIRECTION('',(-4.884439994486E-29,2.215499131419E-29,1.));
#117 = DIRECTION('',(1.,0.,4.884439994486E-29));
#118 = ADVANCED_FACE('',(#119),#136,.T.);
#119 = FACE_BOUND('',#120,.T.);
#120 = EDGE_LOOP('',(#121,#129,#135));
#121 = ORIENTED_EDGE('',*,*,#122,.T.);
#122 = EDGE_CURVE('',#55,#123,#125,.T.);
#123 = VERTEX_POINT('',#124);
#124 = CARTESIAN_POINT('',(20.121299743652,87.214500427246,16.));
#125 = LINE('',#126,#127);
#126 = CARTESIAN_POINT('',(15.878700256348,76.785499572754,16.));
#127 = VECTOR('',#128,1.);
#128 = DIRECTION('',(0.376820538483,0.926286284999,0.));
#129 = ORIENTED_EDGE('',*,*,#130,.T.);
#130 = EDGE_CURVE('',#123,#24,#131,.T.);
#131 = LINE('',#132,#133);
#132 = CARTESIAN_POINT('',(20.121299743652,87.214500427246,16.));
#133 = VECTOR('',#134,1.);
#134 = DIRECTION('',(0.882946146674,-0.469474282654,0.));
#135 = ORIENTED_EDGE('',*,*,#62,.F.);
#136 = PLANE('',#137);
#137 = AXIS2_PLACEMENT_3D('',#138,#139,#140);
#138 = CARTESIAN_POINT('',(18.368912166276,82.11278917963,16.));
#139 = DIRECTION('',(-0.,-0.,-1.));
#140 = DIRECTION('',(-1.,0.,0.));
#141 = ADVANCED_FACE('',(#142),#159,.T.);
#142 = FACE_BOUND('',#143,.T.);
#143 = EDGE_LOOP('',(#144,#145,#153));
#144 = ORIENTED_EDGE('',*,*,#122,.F.);
#145 = ORIENTED_EDGE('',*,*,#146,.T.);
#146 = EDGE_CURVE('',#55,#147,#149,.T.);
#147 = VERTEX_POINT('',#148);
#148 = CARTESIAN_POINT('',(14.863300323486,77.325401306152,16.));
#149 = LINE('',#150,#151);
#150 = CARTESIAN_POINT('',(15.878700256348,76.785499572754,16.));
#151 = VECTOR('',#152,1.);
#152 = DIRECTION('',(-0.882946146674,0.469474282654,0.));
#153 = ORIENTED_EDGE('',*,*,#154,.T.);
#154 = EDGE_CURVE('',#147,#123,#155,.T.);
#155 = LINE('',#156,#157);
#156 = CARTESIAN_POINT('',(14.863300323486,77.325401306152,16.));
#157 = VECTOR('',#158,1.);
#158 = DIRECTION('',(0.46946266334,0.882952324721,0.));
#159 = PLANE('',#160);
#160 = AXIS2_PLACEMENT_3D('',#161,#162,#163);
#161 = CARTESIAN_POINT('',(17.631087833724,81.88721082037,16.));
#162 = DIRECTION('',(-0.,-0.,-1.));
#163 = DIRECTION('',(-1.,0.,0.));
#164 = ADVANCED_FACE('',(#165),#180,.T.);
#165 = FACE_BOUND('',#166,.T.);
#166 = EDGE_LOOP('',(#167,#173,#179));
#167 = ORIENTED_EDGE('',*,*,#168,.T.);
#168 = EDGE_CURVE('',#147,#77,#169,.T.);
#169 = LINE('',#170,#171);
#170 = CARTESIAN_POINT('',(14.863300323486,77.325401306152,16.));
#171 = VECTOR('',#172,1.);
#172 = DIRECTION('',(0.467214697593,0.878724413246,9.774370525983E-02));
#173 = ORIENTED_EDGE('',*,*,#174,.T.);
#174 = EDGE_CURVE('',#77,#123,#175,.T.);
#175 = LINE('',#176,#177);
#176 = CARTESIAN_POINT('',(20.121299743652,87.214500427246,
    17.10000038147));
#177 = VECTOR('',#178,1.);
#178 = DIRECTION('',(0.,0.,-1.));
#179 = ORIENTED_EDGE('',*,*,#154,.F.);
#180 = PLANE('',#181);
#181 = AXIS2_PLACEMENT_3D('',#182,#183,#184);
#182 = CARTESIAN_POINT('',(17.615077700976,82.500867689965,
    16.288472114076));
#183 = DIRECTION('',(-0.882952324721,0.46946266334,2.680549868355E-15));
#184 = DIRECTION('',(-0.46946266334,-0.882952324721,0.));
#185 = ADVANCED_FACE('',(#186),#196,.T.);
#186 = FACE_BOUND('',#187,.T.);
#187 = EDGE_LOOP('',(#188,#189,#195));
#188 = ORIENTED_EDGE('',*,*,#168,.F.);
#189 = ORIENTED_EDGE('',*,*,#190,.T.);
#190 = EDGE_CURVE('',#147,#101,#191,.T.);
#191 = LINE('',#192,#193);
#192 = CARTESIAN_POINT('',(14.863300323486,77.325401306152,16.));
#193 = VECTOR('',#194,1.);
#194 = DIRECTION('',(0.,0.,1.));
#195 = ORIENTED_EDGE('',*,*,#100,.F.);
#196 = PLANE('',#197);
#197 = AXIS2_PLACEMENT_3D('',#198,#199,#200);
#198 = CARTESIAN_POINT('',(17.369522366163,82.039034043433,
    16.811528267394));
#199 = DIRECTION('',(-0.882952324721,0.46946266334,-6.701374670887E-16)
  );
#200 = DIRECTION('',(-0.46946266334,-0.882952324721,0.));
#201 = ADVANCED_FACE('',(#202),#212,.T.);
#202 = FACE_BOUND('',#203,.T.);
#203 = EDGE_LOOP('',(#204,#210,#211));
#204 = ORIENTED_EDGE('',*,*,#205,.T.);
#205 = EDGE_CURVE('',#24,#77,#206,.T.);
#206 = LINE('',#207,#208);
#207 = CARTESIAN_POINT('',(21.136699676514,86.674598693848,16.));
#208 = VECTOR('',#209,1.);
#209 = DIRECTION('',(-0.638057299484,0.339263605256,0.691218553515));
#210 = ORIENTED_EDGE('',*,*,#85,.F.);
#211 = ORIENTED_EDGE('',*,*,#31,.F.);
#212 = PLANE('',#213);
#213 = AXIS2_PLACEMENT_3D('',#214,#215,#216);
#214 = CARTESIAN_POINT('',(20.774381384089,86.867248178835,
    16.714655390323));
#215 = DIRECTION('',(0.469474282654,0.882946146674,1.191489676934E-16));
#216 = DIRECTION('',(0.882946146674,-0.469474282654,0.));
#217 = ADVANCED_FACE('',(#218),#223,.T.);
#218 = FACE_BOUND('',#219,.T.);
#219 = EDGE_LOOP('',(#220,#221,#222));
#220 = ORIENTED_EDGE('',*,*,#205,.F.);
#221 = ORIENTED_EDGE('',*,*,#130,.F.);
#222 = ORIENTED_EDGE('',*,*,#174,.F.);
#223 = PLANE('',#224);
#224 = AXIS2_PLACEMENT_3D('',#225,#226,#227);
#225 = CARTESIAN_POINT('',(20.483618036077,87.021850942259,
    16.385344991147));
#226 = DIRECTION('',(0.469474282654,0.882946146674,-1.191489676934E-16)
  );
#227 = DIRECTION('',(0.882946146674,-0.469474282654,-6.162975822039E-33)
  );
#228 = ADVANCED_FACE('',(#229),#239,.T.);
#229 = FACE_BOUND('',#230,.T.);
#230 = EDGE_LOOP('',(#231,#237,#238));
#231 = ORIENTED_EDGE('',*,*,#232,.T.);
#232 = EDGE_CURVE('',#147,#22,#233,.T.);
#233 = LINE('',#234,#235);
#234 = CARTESIAN_POINT('',(14.863300323486,77.325401306152,16.));
#235 = VECTOR('',#236,1.);
#236 = DIRECTION('',(0.638057299484,-0.339263605256,0.691218553515));
#237 = ORIENTED_EDGE('',*,*,#108,.F.);
#238 = ORIENTED_EDGE('',*,*,#190,.F.);
#239 = PLANE('',#240);
#240 = AXIS2_PLACEMENT_3D('',#241,#242,#243);
#241 = CARTESIAN_POINT('',(15.225618615911,77.132751821165,
    16.714655390323));
#242 = DIRECTION('',(-0.469474282654,-0.882946146674,-5.957448384671E-17
    ));
#243 = DIRECTION('',(-0.882946146674,0.469474282654,0.));
#244 = ADVANCED_FACE('',(#245),#250,.T.);
#245 = FACE_BOUND('',#246,.T.);
#246 = EDGE_LOOP('',(#247,#248,#249));
#247 = ORIENTED_EDGE('',*,*,#232,.F.);
#248 = ORIENTED_EDGE('',*,*,#146,.F.);
#249 = ORIENTED_EDGE('',*,*,#54,.F.);
#250 = PLANE('',#251);
#251 = AXIS2_PLACEMENT_3D('',#252,#253,#254);
#252 = CARTESIAN_POINT('',(15.516381963923,76.978149057741,
    16.385344991147));
#253 = DIRECTION('',(-0.469474282654,-0.882946146674,-0.));
#254 = DIRECTION('',(-0.882946146674,0.469474282654,0.));
#255 = SHELL_BASED_SURFACE_MODEL('',(#256));
#256 = CLOSED_SHELL('',(#257,#289,#312,#335,#358,#381,#404,#425,#441,
    #457,#468,#484));
#257 = ADVANCED_FACE('',(#258),#284,.T.);
#258 = FACE_BOUND('',#259,.T.);
#259 = EDGE_LOOP('',(#260,#270,#278));
#260 = ORIENTED_EDGE('',*,*,#261,.T.);
#261 = EDGE_CURVE('',#262,#264,#266,.T.);
#262 = VERTEX_POINT('',#263);
#263 = CARTESIAN_POINT('',(20.878700256348,76.785499572754,
    17.10000038147));
#264 = VERTEX_POINT('',#265);
#265 = CARTESIAN_POINT('',(26.136699676514,86.674598693848,16.));
#266 = LINE('',#267,#268);
#267 = CARTESIAN_POINT('',(20.878700256348,76.785499572754,
    17.10000038147));
#268 = VECTOR('',#269,1.);
#269 = DIRECTION('',(0.467214697593,0.878724413246,-9.774370525983E-02)
  );
#270 = ORIENTED_EDGE('',*,*,#271,.T.);
#271 = EDGE_CURVE('',#264,#272,#274,.T.);
#272 = VERTEX_POINT('',#273);
#273 = CARTESIAN_POINT('',(26.136699676514,86.674598693848,
    17.10000038147));
#274 = LINE('',#275,#276);
#275 = CARTESIAN_POINT('',(26.136699676514,86.674598693848,16.));
#276 = VECTOR('',#277,1.);
#277 = DIRECTION('',(0.,0.,1.));
#278 = ORIENTED_EDGE('',*,*,#279,.T.);
#279 = EDGE_CURVE('',#272,#262,#280,.T.);
#280 = LINE('',#281,#282);
#281 = CARTESIAN_POINT('',(26.136699676514,86.674598693848,
    17.10000038147));
#282 = VECTOR('',#283,1.);
#283 = DIRECTION('',(-0.46946266334,-0.882952324721,0.));
#284 = PLANE('',#285);
#285 = AXIS2_PLACEMENT_3D('',#286,#287,#288);
#286 = CARTESIAN_POINT('',(23.630477633837,81.960965956567,
    16.811528267394));
#287 = DIRECTION('',(0.882952324721,-0.46946266334,6.701374670887E-16));
#288 = DIRECTION('',(0.46946266334,0.882952324721,4.930380657631E-32));
#289 = ADVANCED_FACE('',(#290),#307,.T.);
#290 = FACE_BOUND('',#291,.T.);
#291 = EDGE_LOOP('',(#292,#293,#301));
#292 = ORIENTED_EDGE('',*,*,#261,.F.);
#293 = ORIENTED_EDGE('',*,*,#294,.T.);
#294 = EDGE_CURVE('',#262,#295,#297,.T.);
#295 = VERTEX_POINT('',#296);
#296 = CARTESIAN_POINT('',(20.878700256348,76.785499572754,16.));
#297 = LINE('',#298,#299);
#298 = CARTESIAN_POINT('',(20.878700256348,76.785499572754,
    17.10000038147));
#299 = VECTOR('',#300,1.);
#300 = DIRECTION('',(0.,0.,-1.));
#301 = ORIENTED_EDGE('',*,*,#302,.T.);
#302 = EDGE_CURVE('',#295,#264,#303,.T.);
#303 = LINE('',#304,#305);
#304 = CARTESIAN_POINT('',(20.878700256348,76.785499572754,16.));
#305 = VECTOR('',#306,1.);
#306 = DIRECTION('',(0.46946266334,0.882952324721,0.));
#307 = PLANE('',#308);
#308 = AXIS2_PLACEMENT_3D('',#309,#310,#311);
#309 = CARTESIAN_POINT('',(23.384922299024,81.499132310035,
    16.288472114076));
#310 = DIRECTION('',(0.882952324721,-0.46946266334,1.340274934177E-15));
#311 = DIRECTION('',(0.46946266334,0.882952324721,0.));
#312 = ADVANCED_FACE('',(#313),#330,.T.);
#313 = FACE_BOUND('',#314,.T.);
#314 = EDGE_LOOP('',(#315,#323,#324));
#315 = ORIENTED_EDGE('',*,*,#316,.T.);
#316 = EDGE_CURVE('',#317,#262,#319,.T.);
#317 = VERTEX_POINT('',#318);
#318 = CARTESIAN_POINT('',(25.121299743652,87.214500427246,
    17.10000038147));
#319 = LINE('',#320,#321);
#320 = CARTESIAN_POINT('',(25.121299743652,87.214500427246,
    17.10000038147));
#321 = VECTOR('',#322,1.);
#322 = DIRECTION('',(-0.376820538483,-0.926286284999,0.));
#323 = ORIENTED_EDGE('',*,*,#279,.F.);
#324 = ORIENTED_EDGE('',*,*,#325,.T.);
#325 = EDGE_CURVE('',#272,#317,#326,.T.);
#326 = LINE('',#327,#328);
#327 = CARTESIAN_POINT('',(26.136699676514,86.674598693848,
    17.10000038147));
#328 = VECTOR('',#329,1.);
#329 = DIRECTION('',(-0.882946146674,0.469474282654,0.));
#330 = PLANE('',#331);
#331 = AXIS2_PLACEMENT_3D('',#332,#333,#334);
#332 = CARTESIAN_POINT('',(23.368912166276,82.11278917963,17.10000038147
    ));
#333 = DIRECTION('',(1.602267672644E-28,-7.579136531453E-29,1.));
#334 = DIRECTION('',(1.,0.,-1.602267672644E-28));
#335 = ADVANCED_FACE('',(#336),#353,.T.);
#336 = FACE_BOUND('',#337,.T.);
#337 = EDGE_LOOP('',(#338,#339,#347));
#338 = ORIENTED_EDGE('',*,*,#316,.F.);
#339 = ORIENTED_EDGE('',*,*,#340,.T.);
#340 = EDGE_CURVE('',#317,#341,#343,.T.);
#341 = VERTEX_POINT('',#342);
#342 = CARTESIAN_POINT('',(19.863300323486,77.325401306152,
    17.10000038147));
#343 = LINE('',#344,#345);
#344 = CARTESIAN_POINT('',(25.121299743652,87.214500427246,
    17.10000038147));
#345 = VECTOR('',#346,1.);
#346 = DIRECTION('',(-0.46946266334,-0.882952324721,0.));
#347 = ORIENTED_EDGE('',*,*,#348,.T.);
#348 = EDGE_CURVE('',#341,#262,#349,.T.);
#349 = LINE('',#350,#351);
#350 = CARTESIAN_POINT('',(19.863300323486,77.325401306152,
    17.10000038147));
#351 = VECTOR('',#352,1.);
#352 = DIRECTION('',(0.882946146674,-0.469474282654,0.));
#353 = PLANE('',#354);
#354 = AXIS2_PLACEMENT_3D('',#355,#356,#357);
#355 = CARTESIAN_POINT('',(22.631087833724,81.88721082037,17.10000038147
    ));
#356 = DIRECTION('',(1.117227894406E-29,-5.690600515691E-30,1.));
#357 = DIRECTION('',(1.,0.,-1.117227894406E-29));
#358 = ADVANCED_FACE('',(#359),#376,.T.);
#359 = FACE_BOUND('',#360,.T.);
#360 = EDGE_LOOP('',(#361,#369,#375));
#361 = ORIENTED_EDGE('',*,*,#362,.T.);
#362 = EDGE_CURVE('',#295,#363,#365,.T.);
#363 = VERTEX_POINT('',#364);
#364 = CARTESIAN_POINT('',(25.121299743652,87.214500427246,16.));
#365 = LINE('',#366,#367);
#366 = CARTESIAN_POINT('',(20.878700256348,76.785499572754,16.));
#367 = VECTOR('',#368,1.);
#368 = DIRECTION('',(0.376820538483,0.926286284999,0.));
#369 = ORIENTED_EDGE('',*,*,#370,.T.);
#370 = EDGE_CURVE('',#363,#264,#371,.T.);
#371 = LINE('',#372,#373);
#372 = CARTESIAN_POINT('',(25.121299743652,87.214500427246,16.));
#373 = VECTOR('',#374,1.);
#374 = DIRECTION('',(0.882946146674,-0.469474282654,0.));
#375 = ORIENTED_EDGE('',*,*,#302,.F.);
#376 = PLANE('',#377);
#377 = AXIS2_PLACEMENT_3D('',#378,#379,#380);
#378 = CARTESIAN_POINT('',(23.368912166276,82.11278917963,16.));
#379 = DIRECTION('',(-0.,-0.,-1.));
#380 = DIRECTION('',(-1.,0.,0.));
#381 = ADVANCED_FACE('',(#382),#399,.T.);
#382 = FACE_BOUND('',#383,.T.);
#383 = EDGE_LOOP('',(#384,#385,#393));
#384 = ORIENTED_EDGE('',*,*,#362,.F.);
#385 = ORIENTED_EDGE('',*,*,#386,.T.);
#386 = EDGE_CURVE('',#295,#387,#389,.T.);
#387 = VERTEX_POINT('',#388);
#388 = CARTESIAN_POINT('',(19.863300323486,77.325401306152,16.));
#389 = LINE('',#390,#391);
#390 = CARTESIAN_POINT('',(20.878700256348,76.785499572754,16.));
#391 = VECTOR('',#392,1.);
#392 = DIRECTION('',(-0.882946146674,0.469474282654,0.));
#393 = ORIENTED_EDGE('',*,*,#394,.T.);
#394 = EDGE_CURVE('',#387,#363,#395,.T.);
#395 = LINE('',#396,#397);
#396 = CARTESIAN_POINT('',(19.863300323486,77.325401306152,16.));
#397 = VECTOR('',#398,1.);
#398 = DIRECTION('',(0.46946266334,0.882952324721,0.));
#399 = PLANE('',#400);
#400 = AXIS2_PLACEMENT_3D('',#401,#402,#403);
#401 = CARTESIAN_POINT('',(22.631087833724,81.88721082037,16.));
#402 = DIRECTION('',(-0.,-0.,-1.));
#403 = DIRECTION('',(-1.,0.,0.));
#404 = ADVANCED_FACE('',(#405),#420,.T.);
#405 = FACE_BOUND('',#406,.T.);
#406 = EDGE_LOOP('',(#407,#413,#419));
#407 = ORIENTED_EDGE('',*,*,#408,.T.);
#408 = EDGE_CURVE('',#387,#317,#409,.T.);
#409 = LINE('',#410,#411);
#410 = CARTESIAN_POINT('',(19.863300323486,77.325401306152,16.));
#411 = VECTOR('',#412,1.);
#412 = DIRECTION('',(0.467214697593,0.878724413246,9.774370525983E-02));
#413 = ORIENTED_EDGE('',*,*,#414,.T.);
#414 = EDGE_CURVE('',#317,#363,#415,.T.);
#415 = LINE('',#416,#417);
#416 = CARTESIAN_POINT('',(25.121299743652,87.214500427246,
    17.10000038147));
#417 = VECTOR('',#418,1.);
#418 = DIRECTION('',(0.,0.,-1.));
#419 = ORIENTED_EDGE('',*,*,#394,.F.);
#420 = PLANE('',#421);
#421 = AXIS2_PLACEMENT_3D('',#422,#423,#424);
#422 = CARTESIAN_POINT('',(22.615077700976,82.500867689965,
    16.288472114076));
#423 = DIRECTION('',(-0.882952324721,0.46946266334,2.010412401266E-15));
#424 = DIRECTION('',(-0.46946266334,-0.882952324721,0.));
#425 = ADVANCED_FACE('',(#426),#436,.T.);
#426 = FACE_BOUND('',#427,.T.);
#427 = EDGE_LOOP('',(#428,#429,#435));
#428 = ORIENTED_EDGE('',*,*,#408,.F.);
#429 = ORIENTED_EDGE('',*,*,#430,.T.);
#430 = EDGE_CURVE('',#387,#341,#431,.T.);
#431 = LINE('',#432,#433);
#432 = CARTESIAN_POINT('',(19.863300323486,77.325401306152,16.));
#433 = VECTOR('',#434,1.);
#434 = DIRECTION('',(0.,0.,1.));
#435 = ORIENTED_EDGE('',*,*,#340,.F.);
#436 = PLANE('',#437);
#437 = AXIS2_PLACEMENT_3D('',#438,#439,#440);
#438 = CARTESIAN_POINT('',(22.369522366163,82.039034043433,
    16.811528267394));
#439 = DIRECTION('',(-0.882952324721,0.46946266334,-6.701374670887E-16)
  );
#440 = DIRECTION('',(-0.46946266334,-0.882952324721,-4.930380657631E-32)
  );
#441 = ADVANCED_FACE('',(#442),#452,.T.);
#442 = FACE_BOUND('',#443,.T.);
#443 = EDGE_LOOP('',(#444,#450,#451));
#444 = ORIENTED_EDGE('',*,*,#445,.T.);
#445 = EDGE_CURVE('',#264,#317,#446,.T.);
#446 = LINE('',#447,#448);
#447 = CARTESIAN_POINT('',(26.136699676514,86.674598693848,16.));
#448 = VECTOR('',#449,1.);
#449 = DIRECTION('',(-0.638057299484,0.339263605256,0.691218553515));
#450 = ORIENTED_EDGE('',*,*,#325,.F.);
#451 = ORIENTED_EDGE('',*,*,#271,.F.);
#452 = PLANE('',#453);
#453 = AXIS2_PLACEMENT_3D('',#454,#455,#456);
#454 = CARTESIAN_POINT('',(25.774381384089,86.867248178835,
    16.714655390323));
#455 = DIRECTION('',(0.469474282654,0.882946146674,0.));
#456 = DIRECTION('',(0.882946146674,-0.469474282654,0.));
#457 = ADVANCED_FACE('',(#458),#463,.T.);
#458 = FACE_BOUND('',#459,.T.);
#459 = EDGE_LOOP('',(#460,#461,#462));
#460 = ORIENTED_EDGE('',*,*,#445,.F.);
#461 = ORIENTED_EDGE('',*,*,#370,.F.);
#462 = ORIENTED_EDGE('',*,*,#414,.F.);
#463 = PLANE('',#464);
#464 = AXIS2_PLACEMENT_3D('',#465,#466,#467);
#465 = CARTESIAN_POINT('',(25.483618036077,87.021850942259,
    16.385344991147));
#466 = DIRECTION('',(0.469474282654,0.882946146674,-1.191489676934E-16)
  );
#467 = DIRECTION('',(0.882946146674,-0.469474282654,-6.162975822039E-33)
  );
#468 = ADVANCED_FACE('',(#469),#479,.T.);
#469 = FACE_BOUND('',#470,.T.);
#470 = EDGE_LOOP('',(#471,#477,#478));
#471 = ORIENTED_EDGE('',*,*,#472,.T.);
#472 = EDGE_CURVE('',#387,#262,#473,.T.);
#473 = LINE('',#474,#475);
#474 = CARTESIAN_POINT('',(19.863300323486,77.325401306152,16.));
#475 = VECTOR('',#476,1.);
#476 = DIRECTION('',(0.638057299484,-0.339263605256,0.691218553515));
#477 = ORIENTED_EDGE('',*,*,#348,.F.);
#478 = ORIENTED_EDGE('',*,*,#430,.F.);
#479 = PLANE('',#480);
#480 = AXIS2_PLACEMENT_3D('',#481,#482,#483);
#481 = CARTESIAN_POINT('',(20.225618615911,77.132751821165,
    16.714655390323));
#482 = DIRECTION('',(-0.469474282654,-0.882946146674,-1.191489676934E-16
    ));
#483 = DIRECTION('',(-0.882946146674,0.469474282654,-6.162975822039E-33)
  );
#484 = ADVANCED_FACE('',(#485),#490,.T.);
#485 = FACE_BOUND('',#486,.T.);
#486 = EDGE_LOOP('',(#487,#488,#489));
#487 = ORIENTED_EDGE('',*,*,#472,.F.);
#488 = ORIENTED_EDGE('',*,*,#386,.F.);
#489 = ORIENTED_EDGE('',*,*,#294,.F.);
#490 = PLANE('',#491);
#491 = AXIS2_PLACEMENT_3D('',#492,#493,#494);
#492 = CARTESIAN_POINT('',(20.516381963923,76.978149057741,
    16.385344991147));
#493 = DIRECTION('',(-0.469474282654,-0.882946146674,-0.));
#494 = DIRECTION('',(-0.882946146674,0.469474282654,0.));
#495 = SHELL_BASED_SURFACE_MODEL('',(#496));
#496 = CLOSED_SHELL('',(#497,#529,#552,#575,#598,#621,#644,#665,#681,
    #697,#708,#724));
#497 = ADVANCED_FACE('',(#498),#524,.T.);
#498 = FACE_BOUND('',#499,.T.);
#499 = EDGE_LOOP('',(#500,#510,#518));
#500 = ORIENTED_EDGE('',*,*,#501,.T.);
#501 = EDGE_CURVE('',#502,#504,#506,.T.);
#502 = VERTEX_POINT('',#503);
#503 = CARTESIAN_POINT('',(25.878700256348,76.785499572754,
    17.10000038147));
#504 = VERTEX_POINT('',#505);
#505 = CARTESIAN_POINT('',(31.136699676514,86.674598693848,16.));
#506 = LINE('',#507,#508);
#507 = CARTESIAN_POINT('',(25.878700256348,76.785499572754,
    17.10000038147));
#508 = VECTOR('',#509,1.);
#509 = DIRECTION('',(0.467214697593,0.878724413246,-9.774370525983E-02)
  );
#510 = ORIENTED_EDGE('',*,*,#511,.T.);
#511 = EDGE_CURVE('',#504,#512,#514,.T.);
#512 = VERTEX_POINT('',#513);
#513 = CARTESIAN_POINT('',(31.136699676514,86.674598693848,
    17.10000038147));
#514 = LINE('',#515,#516);
#515 = CARTESIAN_POINT('',(31.136699676514,86.674598693848,16.));
#516 = VECTOR('',#517,1.);
#517 = DIRECTION('',(0.,0.,1.));
#518 = ORIENTED_EDGE('',*,*,#519,.T.);
#519 = EDGE_CURVE('',#512,#502,#520,.T.);
#520 = LINE('',#521,#522);
#521 = CARTESIAN_POINT('',(31.136699676514,86.674598693848,
    17.10000038147));
#522 = VECTOR('',#523,1.);
#523 = DIRECTION('',(-0.46946266334,-0.882952324721,0.));
#524 = PLANE('',#525);
#525 = AXIS2_PLACEMENT_3D('',#526,#527,#528);
#526 = CARTESIAN_POINT('',(28.630477633837,81.960965956567,
    16.811528267394));
#527 = DIRECTION('',(0.882952324721,-0.46946266334,6.701374670887E-16));
#528 = DIRECTION('',(0.46946266334,0.882952324721,4.930380657631E-32));
#529 = ADVANCED_FACE('',(#530),#547,.T.);
#530 = FACE_BOUND('',#531,.T.);
#531 = EDGE_LOOP('',(#532,#533,#541));
#532 = ORIENTED_EDGE('',*,*,#501,.F.);
#533 = ORIENTED_EDGE('',*,*,#534,.T.);
#534 = EDGE_CURVE('',#502,#535,#537,.T.);
#535 = VERTEX_POINT('',#536);
#536 = CARTESIAN_POINT('',(25.878700256348,76.785499572754,16.));
#537 = LINE('',#538,#539);
#538 = CARTESIAN_POINT('',(25.878700256348,76.785499572754,
    17.10000038147));
#539 = VECTOR('',#540,1.);
#540 = DIRECTION('',(0.,0.,-1.));
#541 = ORIENTED_EDGE('',*,*,#542,.T.);
#542 = EDGE_CURVE('',#535,#504,#543,.T.);
#543 = LINE('',#544,#545);
#544 = CARTESIAN_POINT('',(25.878700256348,76.785499572754,16.));
#545 = VECTOR('',#546,1.);
#546 = DIRECTION('',(0.46946266334,0.882952324721,0.));
#547 = PLANE('',#548);
#548 = AXIS2_PLACEMENT_3D('',#549,#550,#551);
#549 = CARTESIAN_POINT('',(28.384922299024,81.499132310035,
    16.288472114076));
#550 = DIRECTION('',(0.882952324721,-0.46946266334,2.010412401266E-15));
#551 = DIRECTION('',(0.46946266334,0.882952324721,0.));
#552 = ADVANCED_FACE('',(#553),#570,.T.);
#553 = FACE_BOUND('',#554,.T.);
#554 = EDGE_LOOP('',(#555,#563,#564));
#555 = ORIENTED_EDGE('',*,*,#556,.T.);
#556 = EDGE_CURVE('',#557,#502,#559,.T.);
#557 = VERTEX_POINT('',#558);
#558 = CARTESIAN_POINT('',(30.121299743652,87.214500427246,
    17.10000038147));
#559 = LINE('',#560,#561);
#560 = CARTESIAN_POINT('',(30.121299743652,87.214500427246,
    17.10000038147));
#561 = VECTOR('',#562,1.);
#562 = DIRECTION('',(-0.376820538483,-0.926286284999,0.));
#563 = ORIENTED_EDGE('',*,*,#519,.F.);
#564 = ORIENTED_EDGE('',*,*,#565,.T.);
#565 = EDGE_CURVE('',#512,#557,#566,.T.);
#566 = LINE('',#567,#568);
#567 = CARTESIAN_POINT('',(31.136699676514,86.674598693848,
    17.10000038147));
#568 = VECTOR('',#569,1.);
#569 = DIRECTION('',(-0.882946146674,0.469474282654,0.));
#570 = PLANE('',#571);
#571 = AXIS2_PLACEMENT_3D('',#572,#573,#574);
#572 = CARTESIAN_POINT('',(28.368912166276,82.11278917963,17.10000038147
    ));
#573 = DIRECTION('',(3.996988368061E-29,-1.999647367775E-29,1.));
#574 = DIRECTION('',(1.,0.,-3.996988368061E-29));
#575 = ADVANCED_FACE('',(#576),#593,.T.);
#576 = FACE_BOUND('',#577,.T.);
#577 = EDGE_LOOP('',(#578,#579,#587));
#578 = ORIENTED_EDGE('',*,*,#556,.F.);
#579 = ORIENTED_EDGE('',*,*,#580,.T.);
#580 = EDGE_CURVE('',#557,#581,#583,.T.);
#581 = VERTEX_POINT('',#582);
#582 = CARTESIAN_POINT('',(24.863300323486,77.325401306152,
    17.10000038147));
#583 = LINE('',#584,#585);
#584 = CARTESIAN_POINT('',(30.121299743652,87.214500427246,
    17.10000038147));
#585 = VECTOR('',#586,1.);
#586 = DIRECTION('',(-0.46946266334,-0.882952324721,0.));
#587 = ORIENTED_EDGE('',*,*,#588,.T.);
#588 = EDGE_CURVE('',#581,#502,#589,.T.);
#589 = LINE('',#590,#591);
#590 = CARTESIAN_POINT('',(24.863300323486,77.325401306152,
    17.10000038147));
#591 = VECTOR('',#592,1.);
#592 = DIRECTION('',(0.882946146674,-0.469474282654,0.));
#593 = PLANE('',#594);
#594 = AXIS2_PLACEMENT_3D('',#595,#596,#597);
#595 = CARTESIAN_POINT('',(27.631087833724,81.88721082037,17.10000038147
    ));
#596 = DIRECTION('',(1.117227894406E-29,-5.690600515691E-30,1.));
#597 = DIRECTION('',(1.,0.,-1.117227894406E-29));
#598 = ADVANCED_FACE('',(#599),#616,.T.);
#599 = FACE_BOUND('',#600,.T.);
#600 = EDGE_LOOP('',(#601,#609,#615));
#601 = ORIENTED_EDGE('',*,*,#602,.T.);
#602 = EDGE_CURVE('',#535,#603,#605,.T.);
#603 = VERTEX_POINT('',#604);
#604 = CARTESIAN_POINT('',(30.121299743652,87.214500427246,16.));
#605 = LINE('',#606,#607);
#606 = CARTESIAN_POINT('',(25.878700256348,76.785499572754,16.));
#607 = VECTOR('',#608,1.);
#608 = DIRECTION('',(0.376820538483,0.926286284999,0.));
#609 = ORIENTED_EDGE('',*,*,#610,.T.);
#610 = EDGE_CURVE('',#603,#504,#611,.T.);
#611 = LINE('',#612,#613);
#612 = CARTESIAN_POINT('',(30.121299743652,87.214500427246,16.));
#613 = VECTOR('',#614,1.);
#614 = DIRECTION('',(0.882946146674,-0.469474282654,0.));
#615 = ORIENTED_EDGE('',*,*,#542,.F.);
#616 = PLANE('',#617);
#617 = AXIS2_PLACEMENT_3D('',#618,#619,#620);
#618 = CARTESIAN_POINT('',(28.368912166276,82.11278917963,16.));
#619 = DIRECTION('',(-0.,-0.,-1.));
#620 = DIRECTION('',(-1.,0.,0.));
#621 = ADVANCED_FACE('',(#622),#639,.T.);
#622 = FACE_BOUND('',#623,.T.);
#623 = EDGE_LOOP('',(#624,#625,#633));
#624 = ORIENTED_EDGE('',*,*,#602,.F.);
#625 = ORIENTED_EDGE('',*,*,#626,.T.);
#626 = EDGE_CURVE('',#535,#627,#629,.T.);
#627 = VERTEX_POINT('',#628);
#628 = CARTESIAN_POINT('',(24.863300323486,77.325401306152,16.));
#629 = LINE('',#630,#631);
#630 = CARTESIAN_POINT('',(25.878700256348,76.785499572754,16.));
#631 = VECTOR('',#632,1.);
#632 = DIRECTION('',(-0.882946146674,0.469474282654,0.));
#633 = ORIENTED_EDGE('',*,*,#634,.T.);
#634 = EDGE_CURVE('',#627,#603,#635,.T.);
#635 = LINE('',#636,#637);
#636 = CARTESIAN_POINT('',(24.863300323486,77.325401306152,16.));
#637 = VECTOR('',#638,1.);
#638 = DIRECTION('',(0.46946266334,0.882952324721,0.));
#639 = PLANE('',#640);
#640 = AXIS2_PLACEMENT_3D('',#641,#642,#643);
#641 = CARTESIAN_POINT('',(27.631087833724,81.88721082037,16.));
#642 = DIRECTION('',(-0.,-0.,-1.));
#643 = DIRECTION('',(-1.,0.,0.));
#644 = ADVANCED_FACE('',(#645),#660,.T.);
#645 = FACE_BOUND('',#646,.T.);
#646 = EDGE_LOOP('',(#647,#653,#659));
#647 = ORIENTED_EDGE('',*,*,#648,.T.);
#648 = EDGE_CURVE('',#627,#557,#649,.T.);
#649 = LINE('',#650,#651);
#650 = CARTESIAN_POINT('',(24.863300323486,77.325401306152,16.));
#651 = VECTOR('',#652,1.);
#652 = DIRECTION('',(0.467214697593,0.878724413246,9.774370525983E-02));
#653 = ORIENTED_EDGE('',*,*,#654,.T.);
#654 = EDGE_CURVE('',#557,#603,#655,.T.);
#655 = LINE('',#656,#657);
#656 = CARTESIAN_POINT('',(30.121299743652,87.214500427246,
    17.10000038147));
#657 = VECTOR('',#658,1.);
#658 = DIRECTION('',(0.,0.,-1.));
#659 = ORIENTED_EDGE('',*,*,#634,.F.);
#660 = PLANE('',#661);
#661 = AXIS2_PLACEMENT_3D('',#662,#663,#664);
#662 = CARTESIAN_POINT('',(27.615077700976,82.500867689965,
    16.288472114076));
#663 = DIRECTION('',(-0.882952324721,0.46946266334,2.010412401266E-15));
#664 = DIRECTION('',(-0.46946266334,-0.882952324721,0.));
#665 = ADVANCED_FACE('',(#666),#676,.T.);
#666 = FACE_BOUND('',#667,.T.);
#667 = EDGE_LOOP('',(#668,#669,#675));
#668 = ORIENTED_EDGE('',*,*,#648,.F.);
#669 = ORIENTED_EDGE('',*,*,#670,.T.);
#670 = EDGE_CURVE('',#627,#581,#671,.T.);
#671 = LINE('',#672,#673);
#672 = CARTESIAN_POINT('',(24.863300323486,77.325401306152,16.));
#673 = VECTOR('',#674,1.);
#674 = DIRECTION('',(0.,0.,1.));
#675 = ORIENTED_EDGE('',*,*,#580,.F.);
#676 = PLANE('',#677);
#677 = AXIS2_PLACEMENT_3D('',#678,#679,#680);
#678 = CARTESIAN_POINT('',(27.369522366163,82.039034043433,
    16.811528267394));
#679 = DIRECTION('',(-0.882952324721,0.46946266334,-6.701374670887E-16)
  );
#680 = DIRECTION('',(-0.46946266334,-0.882952324721,0.));
#681 = ADVANCED_FACE('',(#682),#692,.T.);
#682 = FACE_BOUND('',#683,.T.);
#683 = EDGE_LOOP('',(#684,#690,#691));
#684 = ORIENTED_EDGE('',*,*,#685,.T.);
#685 = EDGE_CURVE('',#504,#557,#686,.T.);
#686 = LINE('',#687,#688);
#687 = CARTESIAN_POINT('',(31.136699676514,86.674598693848,16.));
#688 = VECTOR('',#689,1.);
#689 = DIRECTION('',(-0.638057299484,0.339263605256,0.691218553515));
#690 = ORIENTED_EDGE('',*,*,#565,.F.);
#691 = ORIENTED_EDGE('',*,*,#511,.F.);
#692 = PLANE('',#693);
#693 = AXIS2_PLACEMENT_3D('',#694,#695,#696);
#694 = CARTESIAN_POINT('',(30.774381384089,86.867248178835,
    16.714655390323));
#695 = DIRECTION('',(0.469474282654,0.882946146674,1.191489676934E-16));
#696 = DIRECTION('',(0.882946146674,-0.469474282654,0.));
#697 = ADVANCED_FACE('',(#698),#703,.T.);
#698 = FACE_BOUND('',#699,.T.);
#699 = EDGE_LOOP('',(#700,#701,#702));
#700 = ORIENTED_EDGE('',*,*,#685,.F.);
#701 = ORIENTED_EDGE('',*,*,#610,.F.);
#702 = ORIENTED_EDGE('',*,*,#654,.F.);
#703 = PLANE('',#704);
#704 = AXIS2_PLACEMENT_3D('',#705,#706,#707);
#705 = CARTESIAN_POINT('',(30.483618036077,87.021850942259,
    16.385344991147));
#706 = DIRECTION('',(0.469474282654,0.882946146674,-1.191489676934E-16)
  );
#707 = DIRECTION('',(0.882946146674,-0.469474282654,-6.162975822039E-33)
  );
#708 = ADVANCED_FACE('',(#709),#719,.T.);
#709 = FACE_BOUND('',#710,.T.);
#710 = EDGE_LOOP('',(#711,#717,#718));
#711 = ORIENTED_EDGE('',*,*,#712,.T.);
#712 = EDGE_CURVE('',#627,#502,#713,.T.);
#713 = LINE('',#714,#715);
#714 = CARTESIAN_POINT('',(24.863300323486,77.325401306152,16.));
#715 = VECTOR('',#716,1.);
#716 = DIRECTION('',(0.638057299484,-0.339263605256,0.691218553515));
#717 = ORIENTED_EDGE('',*,*,#588,.F.);
#718 = ORIENTED_EDGE('',*,*,#670,.F.);
#719 = PLANE('',#720);
#720 = AXIS2_PLACEMENT_3D('',#721,#722,#723);
#721 = CARTESIAN_POINT('',(25.225618615911,77.132751821165,
    16.714655390323));
#722 = DIRECTION('',(-0.469474282654,-0.882946146674,-1.191489676934E-16
    ));
#723 = DIRECTION('',(-0.882946146674,0.469474282654,-6.162975822039E-33)
  );
#724 = ADVANCED_FACE('',(#725),#730,.T.);
#725 = FACE_BOUND('',#726,.T.);
#726 = EDGE_LOOP('',(#727,#728,#729));
#727 = ORIENTED_EDGE('',*,*,#712,.F.);
#728 = ORIENTED_EDGE('',*,*,#626,.F.);
#729 = ORIENTED_EDGE('',*,*,#534,.F.);
#730 = PLANE('',#731);
#731 = AXIS2_PLACEMENT_3D('',#732,#733,#734);
#732 = CARTESIAN_POINT('',(25.516381963923,76.978149057741,
    16.385344991147));
#733 = DIRECTION('',(-0.469474282654,-0.882946146674,-0.));
#734 = DIRECTION('',(-0.882946146674,0.469474282654,0.));
#735 = ( GEOMETRIC_REPRESENTATION_CONTEXT(3) 
GLOBAL_UNCERTAINTY_ASSIGNED_CONTEXT((#739)) GLOBAL_UNIT_ASSIGNED_CONTEXT
((#736,#737,#738)) REPRESENTATION_CONTEXT('Context #1',
  '3D Context with UNIT and UNCERTAINTY') );
#736 = ( LENGTH_UNIT() NAMED_UNIT(*) SI_UNIT(.MILLI.,.METRE.) );
#737 = ( NAMED_UNIT(*) PLANE_ANGLE_UNIT() SI_UNIT($,.RADIAN.) );
#738 = ( NAMED_UNIT(*) SI_UNIT($,.STERADIAN.) SOLID_ANGLE_UNIT() );
#739 = UNCERTAINTY_MEASURE_WITH_UNIT(LENGTH_MEASURE(1.E-07),#736,
  'distance_accuracy_value','confusion accuracy');
#740 = PRODUCT_RELATED_PRODUCT_CATEGORY('part',$,(#7));
ENDSEC;
END-ISO-10303-21;
